<svg xmlns="http://www.w3.org/2000/svg" xmlns:xlink="http://www.w3.org/1999/xlink" width="1940" height="515.91"><rect width="1940" height="515.91" rx="5" ry="5" class="a"/><svg y="0%" x="0%"><circle cx="20" cy="20" r="6" fill="#ff5f58"/><circle cx="40" cy="20" r="6" fill="#ffbd2e"/><circle cx="60" cy="20" r="6" fill="#18c132"/></svg><svg height="455.91" viewBox="0 0 190 45.591" width="1900" x="15" xmlns="http://www.w3.org/2000/svg" xmlns:xlink="http://www.w3.org/1999/xlink" y="50"><style>@keyframes k{0%{transform:translateX(0)}.34%{transform:translateX(-190px)}3.23%{transform:translateX(-380px)}4.06%{transform:translateX(-760px)}4.66%{transform:translateX(-950px)}10.91%{transform:translateX(-1140px)}11.22%{transform:translateX(-1520px)}11.25%{transform:translateX(-1710px)}11.28%{transform:translateX(-1900px)}17.03%{transform:translateX(-2090px)}17.59%{transform:translateX(-2280px)}18.47%{transform:translateX(-2470px)}18.65%{transform:translateX(-2660px)}18.89%{transform:translateX(-2850px)}19.24%{transform:translateX(-3040px)}19.28%{transform:translateX(-3230px)}21.4%{transform:translateX(-3420px)}21.45%{transform:translateX(-3610px)}21.48%{transform:translateX(-3800px)}92.82%{transform:translateX(-3990px)}99.96%{transform:translateX(-5320px)}to{transform:translateX(-5510px)}}.a{fill:#282d35}.f,.g,.h{white-space:pre}.f{fill:#a8cc8c;font-weight:700}.g,.h{fill:#b9c0cb}.h{fill:#71bef2;font-weight:700}</style><g font-family="Monaco,Consolas,Menlo,'Bitstream Vera Sans Mono','Powerline Symbols',monospace" font-size="5"><defs><symbol id="1"><text y="5" class="f">op@lok</text><text x="6.012" y="5" class="g">:</text><text x="7.014" y="5" class="h">~/HALO</text><text x="13.026" y="5" class="g">$</text><text x="15.03" y="5" class="g">ssh</text><text x="19.038" y="5" class="g">OP@192.168.1.196</text></symbol><symbol id="2"><text y="5" class="g">OP@192.168.1.196&apos;s</text><text x="19.038" y="5" class="g">password:</text></symbol><symbol id="3"><text y="5" class="g">Microsoft</text><text x="10.02" y="5" class="g">Windows</text><text x="18.036" y="5" class="g">[Version</text><text x="27.054" y="5" class="g">10.0.26100.6584]</text></symbol><symbol id="4"><text y="5" class="g">(c)</text><text x="4.008" y="5" class="g">Microsoft</text><text x="14.028" y="5" class="g">Corporation.</text><text x="27.054" y="5" class="g">All</text><text x="31.062" y="5" class="g">rights</text><text x="38.076" y="5" class="g">reserved.</text></symbol><symbol id="5"><text y="5" class="g">op@WIN11-LAB</text><text x="13.026" y="5" class="g">C:\Users\OP&gt;.\hal</text></symbol><symbol id="6"><text y="5" class="g">op@WIN11-LAB</text><text x="13.026" y="5" class="g">C:\Users\OP&gt;.\halo.exe</text></symbol><symbol id="7"><text y="5" class="g">[2025-09-25</text><text x="12.024" y="5" class="g">09:19:24]</text><text x="22.044" y="5" class="g">[*]</text><text x="26.052" y="5" class="g">HALO</text><text x="31.062" y="5" class="g">(Hybrid</text><text x="39.078" y="5" class="g">Autonomous</text><text x="50.1" y="5" class="g">Logic</text><text x="56.112" y="5" class="g">Operator</text><text x="65.13" y="5" class="g">started.</text><text x="74.148" y="5" class="g">Self:</text><text x="80.16" y="5" class="g">halo.exe,</text><text x="90.18" y="5" class="g">Parent:</text><text x="98.196" y="5" class="g">cmd.exe</text></symbol><symbol id="8"><text x="6.012" y="5" class="g">&quot;cached_tokens&quot;:</text><text x="23.046" y="5" class="g">0,</text></symbol><symbol id="9"><text x="6.012" y="5" class="g">&quot;audio_tokens&quot;:</text><text x="22.044" y="5" class="g">0</text></symbol><symbol id="10"><text x="4.008" y="5" class="g">},</text></symbol><symbol id="11"><text x="4.008" y="5" class="g">&quot;completion_tokens_details&quot;:</text><text x="33.066" y="5" class="g">{</text></symbol><symbol id="12"><text x="6.012" y="5" class="g">&quot;reasoning_tokens&quot;:</text><text x="26.052" y="5" class="g">0,</text></symbol><symbol id="13"><text x="6.012" y="5" class="g">&quot;audio_tokens&quot;:</text><text x="22.044" y="5" class="g">0,</text></symbol><symbol id="14"><text x="6.012" y="5" class="g">&quot;accepted_prediction_tokens&quot;:</text><text x="36.072" y="5" class="g">0,</text></symbol><symbol id="15"><text x="6.012" y="5" class="g">&quot;rejected_prediction_tokens&quot;:</text><text x="36.072" y="5" class="g">0</text></symbol><symbol id="16"><text x="4.008" y="5" class="g">}</text></symbol><symbol id="17"><text x="2.004" y="5" class="g">},</text></symbol><symbol id="18"><text x="2.004" y="5" class="g">&quot;service_tier&quot;:</text><text x="18.036" y="5" class="g">&quot;default&quot;,</text></symbol><symbol id="19"><text x="2.004" y="5" class="g">&quot;system_fingerprint&quot;:</text><text x="24.048" y="5" class="g">&quot;fp_3502f4eb73&quot;</text></symbol><symbol id="20"><text y="5" class="g">}</text></symbol><symbol id="21"><text y="5" class="g">[2025-09-25</text><text x="12.024" y="5" class="g">09:19:58]</text><text x="22.044" y="5" class="g">[GPT</text><text x="27.054" y="5" class="g">Content]</text><text x="36.072" y="5" class="g">{</text></symbol><symbol id="22"><text x="2.004" y="5" class="g">&quot;allow&quot;:</text><text x="11.022" y="5" class="g">true,</text></symbol><symbol id="23"><text x="2.004" y="5" class="g">&quot;reason&quot;:</text><text x="12.024" y="5" class="g">&quot;All</text><text x="17.034" y="5" class="g">telemetry</text><text x="27.054" y="5" class="g">fields</text><text x="34.068" y="5" class="g">are</text><text x="38.076" y="5" class="g">within</text><text x="45.09" y="5" class="g">expected</text><text x="54.108" y="5" class="g">baselines.</text><text x="65.13" y="5" class="g">Only</text><text x="70.14" y="5" class="g">one</text><text x="74.148" y="5" class="g">deviation</text><text x="84.168" y="5" class="g">(presence</text><text x="94.188" y="5" class="g">of</text><text x="97.194" y="5" class="g">&apos;rundll32.exe&apos;</text><text x="112.224" y="5" class="g">not</text><text x="116.232" y="5" class="g">in</text><text x="119.238" y="5" class="g">baseline),</text><text x="130.26" y="5" class="g">but</text><text x="134.268" y="5" class="g">this</text><text x="139.278" y="5" class="g">is</text><text x="142.284" y="5" class="g">a</text><text x="144.288" y="5" class="g">common</text><text x="151.302" y="5" class="g">Windows</text><text x="159.318" y="5" class="g">process</text><text x="167.334" y="5" class="g">and</text><text x="171.342" y="5" class="g">not</text><text x="175.35" y="5" class="g">inherently</text><text x="186.372" y="5" class="g">susp</text></symbol><symbol id="24"><text y="5" class="g">icious.</text><text x="8.016" y="5" class="g">No</text><text x="11.022" y="5" class="g">evidence</text><text x="20.04" y="5" class="g">of</text><text x="23.046" y="5" class="g">monitoring</text><text x="34.068" y="5" class="g">tools,</text><text x="41.082" y="5" class="g">sandbox</text><text x="49.098" y="5" class="g">artifacts,</text><text x="60.12" y="5" class="g">or</text><text x="63.126" y="5" class="g">abnormal</text><text x="72.144" y="5" class="g">drivers.</text><text x="81.162" y="5" class="g">Uptime,</text><text x="89.178" y="5" class="g">logon,</text><text x="96.192" y="5" class="g">USB,</text><text x="101.202" y="5" class="g">and</text><text x="105.21" y="5" class="g">network</text><text x="113.226" y="5" class="g">activity</text><text x="122.244" y="5" class="g">are</text><text x="126.252" y="5" class="g">consistent</text><text x="137.274" y="5" class="g">with</text><text x="142.284" y="5" class="g">a</text><text x="144.288" y="5" class="g">normal</text><text x="151.302" y="5" class="g">user</text><text x="156.312" y="5" class="g">session</text><text x="164.328" y="5" class="g">during</text><text x="171.342" y="5" class="g">working</text><text x="179.358" y="5" class="g">hours.</text><text x="186.372" y="5" class="g">Only</text></symbol><symbol id="25"><text x="1.002" y="5" class="g">Microsoft</text><text x="11.022" y="5" class="g">Defender/SmartScreen</text><text x="32.064" y="5" class="g">are</text><text x="36.072" y="5" class="g">present,</text><text x="45.09" y="5" class="g">which</text><text x="51.102" y="5" class="g">is</text><text x="54.108" y="5" class="g">expected.&quot;,</text></symbol><symbol id="26"><text x="2.004" y="5" class="g">&quot;conf&quot;:</text><text x="10.02" y="5" class="g">0.97</text></symbol><symbol id="27"><text y="5" class="g">[2025-09-25</text><text x="12.024" y="5" class="g">09:19:58]</text><text x="22.044" y="5" class="g">[GPT</text><text x="27.054" y="5" class="g">Decision]</text><text x="37.074" y="5" class="g">Allow:</text><text x="44.088" y="5" class="g">true</text><text x="49.098" y="5" class="g">Conf:</text><text x="55.11" y="5" class="g">0.97</text><text x="60.12" y="5" class="g">Reason:</text><text x="68.136" y="5" class="g">All</text><text x="72.144" y="5" class="g">telemetry</text><text x="82.164" y="5" class="g">fields</text><text x="89.178" y="5" class="g">are</text><text x="93.186" y="5" class="g">within</text><text x="100.2" y="5" class="g">expected</text><text x="109.218" y="5" class="g">baselines.</text><text x="120.24" y="5" class="g">Only</text><text x="125.25" y="5" class="g">one</text><text x="129.258" y="5" class="g">deviation</text><text x="139.278" y="5" class="g">(presence</text><text x="149.298" y="5" class="g">of</text><text x="152.304" y="5" class="g">&apos;rundll32.exe&apos;</text><text x="167.334" y="5" class="g">not</text><text x="171.342" y="5" class="g">in</text><text x="174.348" y="5" class="g">baseline),</text><text x="185.37" y="5" class="g">but</text><text x="189.378" y="5" class="g">t</text></symbol><symbol id="28"><text y="5" class="g">his</text><text x="4.008" y="5" class="g">is</text><text x="7.014" y="5" class="g">a</text><text x="9.018" y="5" class="g">common</text><text x="16.032" y="5" class="g">Windows</text><text x="24.048" y="5" class="g">process</text><text x="32.064" y="5" class="g">and</text><text x="36.072" y="5" class="g">not</text><text x="40.08" y="5" class="g">inherently</text><text x="51.102" y="5" class="g">suspicious.</text><text x="63.126" y="5" class="g">No</text><text x="66.132" y="5" class="g">evidence</text><text x="75.15" y="5" class="g">of</text><text x="78.156" y="5" class="g">monitoring</text><text x="89.178" y="5" class="g">tools,</text><text x="96.192" y="5" class="g">sandbox</text><text x="104.208" y="5" class="g">artifacts,</text><text x="115.23" y="5" class="g">or</text><text x="118.236" y="5" class="g">abnormal</text><text x="127.254" y="5" class="g">drivers.</text><text x="136.272" y="5" class="g">Uptime,</text><text x="144.288" y="5" class="g">logon,</text><text x="151.302" y="5" class="g">USB,</text><text x="156.312" y="5" class="g">and</text><text x="160.32" y="5" class="g">network</text><text x="168.336" y="5" class="g">activity</text><text x="177.354" y="5" class="g">are</text><text x="181.362" y="5" class="g">consisten</text></symbol><symbol id="29"><text y="5" class="g">t</text><text x="2.004" y="5" class="g">with</text><text x="7.014" y="5" class="g">a</text><text x="9.018" y="5" class="g">normal</text><text x="16.032" y="5" class="g">user</text><text x="21.042" y="5" class="g">session</text><text x="29.058" y="5" class="g">during</text><text x="36.072" y="5" class="g">working</text><text x="44.088" y="5" class="g">hours.</text><text x="51.102" y="5" class="g">Only</text><text x="56.112" y="5" class="g">Microsoft</text><text x="66.132" y="5" class="g">Defender/SmartScreen</text><text x="87.174" y="5" class="g">are</text><text x="91.182" y="5" class="g">present,</text><text x="100.2" y="5" class="g">which</text><text x="106.212" y="5" class="g">is</text><text x="109.218" y="5" class="g">expected.</text><text x="119.238" y="5" class="g">Thoughts:</text></symbol><symbol id="30"><text y="5" class="g">[2025-09-25</text><text x="12.024" y="5" class="g">09:19:58]</text><text x="22.044" y="5" class="g">[*]</text><text x="26.052" y="5" class="g">Decision:</text><text x="36.072" y="5" class="g">true</text><text x="41.082" y="5" class="g">(confidence</text><text x="53.106" y="5" class="g">0.97)</text></symbol><symbol id="31"><text y="5" class="g">[2025-09-25</text><text x="12.024" y="5" class="g">09:19:58]</text><text x="22.044" y="5" class="g">[*]</text><text x="26.052" y="5" class="g">Reason:</text><text x="34.068" y="5" class="g">All</text><text x="38.076" y="5" class="g">telemetry</text><text x="48.096" y="5" class="g">fields</text><text x="55.11" y="5" class="g">are</text><text x="59.118" y="5" class="g">within</text><text x="66.132" y="5" class="g">expected</text><text x="75.15" y="5" class="g">baselines.</text><text x="86.172" y="5" class="g">Only</text><text x="91.182" y="5" class="g">one</text><text x="95.19" y="5" class="g">deviation</text><text x="105.21" y="5" class="g">(presence</text><text x="115.23" y="5" class="g">of</text><text x="118.236" y="5" class="g">&apos;rundll32.exe&apos;</text><text x="133.266" y="5" class="g">not</text><text x="137.274" y="5" class="g">in</text><text x="140.28" y="5" class="g">baseline),</text><text x="151.302" y="5" class="g">but</text><text x="155.31" y="5" class="g">this</text><text x="160.32" y="5" class="g">is</text><text x="163.326" y="5" class="g">a</text><text x="165.33" y="5" class="g">common</text><text x="172.344" y="5" class="g">Windows</text><text x="180.36" y="5" class="g">process</text><text x="188.376" y="5" class="g">an</text></symbol><symbol id="32"><text y="5" class="g">d</text><text x="2.004" y="5" class="g">not</text><text x="6.012" y="5" class="g">inherently</text><text x="17.034" y="5" class="g">suspicious.</text><text x="29.058" y="5" class="g">No</text><text x="32.064" y="5" class="g">evidence</text><text x="41.082" y="5" class="g">of</text><text x="44.088" y="5" class="g">monitoring</text><text x="55.11" y="5" class="g">tools,</text><text x="62.124" y="5" class="g">sandbox</text><text x="70.14" y="5" class="g">artifacts,</text><text x="81.162" y="5" class="g">or</text><text x="84.168" y="5" class="g">abnormal</text><text x="93.186" y="5" class="g">drivers.</text><text x="102.204" y="5" class="g">Uptime,</text><text x="110.22" y="5" class="g">logon,</text><text x="117.234" y="5" class="g">USB,</text><text x="122.244" y="5" class="g">and</text><text x="126.252" y="5" class="g">network</text><text x="134.268" y="5" class="g">activity</text><text x="143.286" y="5" class="g">are</text><text x="147.294" y="5" class="g">consistent</text><text x="158.316" y="5" class="g">with</text><text x="163.326" y="5" class="g">a</text><text x="165.33" y="5" class="g">normal</text><text x="172.344" y="5" class="g">user</text><text x="177.354" y="5" class="g">session</text><text x="185.37" y="5" class="g">durin</text></symbol><symbol id="33"><text y="5" class="g">g</text><text x="2.004" y="5" class="g">working</text><text x="10.02" y="5" class="g">hours.</text><text x="17.034" y="5" class="g">Only</text><text x="22.044" y="5" class="g">Microsoft</text><text x="32.064" y="5" class="g">Defender/SmartScreen</text><text x="53.106" y="5" class="g">are</text><text x="57.114" y="5" class="g">present,</text><text x="66.132" y="5" class="g">which</text><text x="72.144" y="5" class="g">is</text><text x="75.15" y="5" class="g">expected.</text></symbol><symbol id="34"><text y="5" class="g">[2025-09-25</text><text x="12.024" y="5" class="g">09:19:58]</text><text x="22.044" y="5" class="g">[*]</text><text x="26.052" y="5" class="g">Thoughts:</text></symbol><symbol id="35"><text y="5" class="g">[2025-09-25</text><text x="12.024" y="5" class="g">09:19:58]</text><text x="22.044" y="5" class="g">[+]</text><text x="26.052" y="5" class="g">Execution</text><text x="36.072" y="5" class="g">approved.</text><text x="46.092" y="5" class="g">executing</text><text x="56.112" y="5" class="g">shellcode</text><text x="66.132" y="5" class="g">inline.</text></symbol><symbol id="a"><path fill="transparent" d="M0 0h190v21H0z"/></symbol><symbol id="b"><path fill="#6f7683" d="M0 0h1.102v2.171H0z"/></symbol></defs><path class="a" d="M0 0h190v45.591H0z"/><g style="animation-duration:43.540482s;animation-iteration-count:infinite;animation-name:k;animation-timing-function:steps(1,end)"><svg width="5700"><svg><use xlink:href="#a"/><use xlink:href="#b" x="-.004"/></svg><svg x="190"><use xlink:href="#a"/><use xlink:href="#b" x="14.996"/><text y="5" class="f">op@lok</text><text x="6.012" y="5" class="g">:</text><text x="7.014" y="5" class="h">~/HALO</text><text x="13.026" y="5" class="g">$</text></svg><svg x="380"><use xlink:href="#a"/><use xlink:href="#b" x="34.996"/><text y="5" class="f">op@lok</text><text x="6.012" y="5" class="g">:</text><text x="7.014" y="5" class="h">~/HALO</text><text x="13.026" y="5" class="g">$</text><path fill="#b9c0cb" d="M15.03 0h20v2.171h-20z"/><text x="15.03" y="5" style="white-space:pre" fill="#282d35">ssh OP@192.168.1.196</text></svg><svg x="570"><use xlink:href="#a"/><use xlink:href="#b" x="-.004" y="2.146"/><use xlink:href="#1"/></svg><svg x="760"><use xlink:href="#a"/><use xlink:href="#b" x="-.004" y="2.146"/><use xlink:href="#1"/></svg><svg x="950"><use xlink:href="#a"/><use xlink:href="#b" x="28.996" y="2.146"/><use xlink:href="#1"/><use xlink:href="#2" y="2.171"/></svg><svg x="1140"><use xlink:href="#a"/><use xlink:href="#b" x="-.004" y="4.317"/><use xlink:href="#1"/><use xlink:href="#2" y="2.171"/></svg><svg x="1330"><use xlink:href="#a"/><use xlink:href="#b" x="-.004" y="4.317"/><use xlink:href="#1"/><use xlink:href="#2" y="2.171"/></svg><svg x="1520"><use xlink:href="#a"/><use xlink:href="#b" x="-.004"/></svg><svg x="1710"><use xlink:href="#a"/><use xlink:href="#b" x="42.996"/><use xlink:href="#3"/></svg><svg x="1900"><use xlink:href="#a"/><use xlink:href="#b" x="24.996" y="6.488"/><use xlink:href="#3"/><use xlink:href="#4" y="2.171"/><text y="8.183" class="g">op@WIN11-LAB</text><text x="13.026" y="8.183" class="g">C:\Users\OP&gt;</text></svg><svg x="2090"><use xlink:href="#a"/><use xlink:href="#b" x="25.996" y="6.488"/><use xlink:href="#3"/><use xlink:href="#4" y="2.171"/><text y="8.183" class="g">op@WIN11-LAB</text><text x="13.026" y="8.183" class="g">C:\Users\OP&gt;.</text></svg><svg x="2280"><use xlink:href="#a"/><use xlink:href="#b" x="26.996" y="6.488"/><use xlink:href="#3"/><use xlink:href="#4" y="2.171"/><text y="8.183" class="g">op@WIN11-LAB</text><text x="13.026" y="8.183" class="g">C:\Users\OP&gt;.\</text></svg><svg x="2470"><use xlink:href="#a"/><use xlink:href="#b" x="27.996" y="6.488"/><use xlink:href="#3"/><use xlink:href="#4" y="2.171"/><text y="8.183" class="g">op@WIN11-LAB</text><text x="13.026" y="8.183" class="g">C:\Users\OP&gt;.\h</text></svg><svg x="2660"><use xlink:href="#a"/><use xlink:href="#b" x="28.996" y="6.488"/><use xlink:href="#3"/><use xlink:href="#4" y="2.171"/><text y="8.183" class="g">op@WIN11-LAB</text><text x="13.026" y="8.183" class="g">C:\Users\OP&gt;.\ha</text></svg><svg x="2850"><use xlink:href="#a"/><use xlink:href="#b" x="29.996" y="6.488"/><use xlink:href="#3"/><use xlink:href="#4" y="2.171"/><use xlink:href="#5" y="6.513"/></svg><svg x="3040"><use xlink:href="#a"/><use xlink:href="#b" x="24.996" y="6.488"/><use xlink:href="#3"/><use xlink:href="#4" y="2.171"/><use xlink:href="#5" y="6.513"/></svg><svg x="3230"><use xlink:href="#a"/><use xlink:href="#b" x="34.996" y="6.488"/><use xlink:href="#3"/><use xlink:href="#4" y="2.171"/><use xlink:href="#6" y="6.513"/></svg><svg x="3420"><use xlink:href="#a"/><use xlink:href="#b" x="-.004" y="8.659"/><use xlink:href="#3"/><use xlink:href="#4" y="2.171"/><use xlink:href="#6" y="6.513"/></svg><svg x="3610"><use xlink:href="#a"/><use xlink:href="#b" x="-.004" y="8.659"/><use xlink:href="#3"/><use xlink:href="#4" y="2.171"/><use xlink:href="#6" y="6.513"/></svg><svg x="3800"><use xlink:href="#a"/><use xlink:href="#b" x="-.004" y="10.83"/><use xlink:href="#3"/><use xlink:href="#4" y="2.171"/><use xlink:href="#6" y="6.513"/><use xlink:href="#7" y="8.684"/></svg><svg x="3990"><use xlink:href="#a"/><use xlink:href="#b" x="-.004" y="13.001"/><use xlink:href="#3"/><use xlink:href="#4" y="2.171"/><use xlink:href="#6" y="6.513"/><use xlink:href="#7" y="8.684"/><text y="12.525" class="g">[2025-09-25</text><text x="12.024" y="12.525" class="g">09:19:55]</text><text x="22.044" y="12.525" class="g">[*]</text><text x="26.052" y="12.525" class="g">Collected</text><text x="36.072" y="12.525" class="g">telemetry.</text><text x="47.094" y="12.525" class="g">Querying</text><text x="56.112" y="12.525" class="g">GPT...</text></svg><svg x="4180"><use xlink:href="#a"/><use xlink:href="#b" x="-.004" y="43.395"/><text x="2.004" y="5" class="g">],</text><text x="2.004" y="3.841" class="g">&quot;usage&quot;:</text><text x="11.022" y="3.841" class="g">{</text><text x="4.008" y="6.012" class="g">&quot;prompt_tokens&quot;:</text><text x="21.042" y="6.012" class="g">4705,</text><text x="4.008" y="8.183" class="g">&quot;completion_tokens&quot;:</text><text x="25.05" y="8.183" class="g">108,</text><text x="4.008" y="10.354" class="g">&quot;total_tokens&quot;:</text><text x="20.04" y="10.354" class="g">4813,</text><text x="4.008" y="12.525" class="g">&quot;prompt_tokens_details&quot;:</text><text x="29.058" y="12.525" class="g">{</text><use xlink:href="#8" y="13.026"/><use xlink:href="#9" y="15.197"/><use xlink:href="#10" y="17.368"/><use xlink:href="#11" y="19.539"/><use xlink:href="#12" y="21.71"/><use xlink:href="#13" y="23.881"/><use xlink:href="#14" y="26.052"/><use xlink:href="#15" y="28.223"/><use xlink:href="#16" y="30.394"/><use xlink:href="#17" y="32.565"/><use xlink:href="#18" y="34.736"/><use xlink:href="#19" y="36.907"/><use xlink:href="#20" y="39.078"/></svg><svg x="4370"><use xlink:href="#a"/><use xlink:href="#b" x=".996" y="43.395"/><use xlink:href="#8"/><use xlink:href="#9" y="2.171"/><use xlink:href="#10" y="4.342"/><use xlink:href="#11" y="6.513"/><use xlink:href="#12" y="8.684"/><use xlink:href="#13" y="10.855"/><use xlink:href="#14" y="13.026"/><use xlink:href="#15" y="15.197"/><use xlink:href="#16" y="17.368"/><use xlink:href="#17" y="19.539"/><use xlink:href="#18" y="21.71"/><use xlink:href="#19" y="23.881"/><use xlink:href="#20" y="26.052"/><use xlink:href="#21" y="30.394"/><use xlink:href="#22" y="32.565"/><use xlink:href="#23" y="34.736"/><use xlink:href="#24" y="36.907"/><use xlink:href="#25" y="39.078"/><use xlink:href="#26" y="41.249"/><use xlink:href="#20" y="43.42"/></svg><svg x="4560"><use xlink:href="#a"/><use xlink:href="#b" x="128.996" y="43.395"/><use xlink:href="#11"/><use xlink:href="#12" y="2.171"/><use xlink:href="#13" y="4.342"/><use xlink:href="#14" y="6.513"/><use xlink:href="#15" y="8.684"/><use xlink:href="#16" y="10.855"/><use xlink:href="#17" y="13.026"/><use xlink:href="#18" y="15.197"/><use xlink:href="#19" y="17.368"/><use xlink:href="#20" y="19.539"/><use xlink:href="#21" y="23.881"/><use xlink:href="#22" y="26.052"/><use xlink:href="#23" y="28.223"/><use xlink:href="#24" y="30.394"/><use xlink:href="#25" y="32.565"/><use xlink:href="#26" y="34.736"/><use xlink:href="#20" y="36.907"/><use xlink:href="#27" y="39.078"/><use xlink:href="#28" y="41.249"/><use xlink:href="#29" y="43.42"/></svg><svg x="4750"><use xlink:href="#a"/><use xlink:href="#b" x="57.996" y="43.395"/><use xlink:href="#12"/><use xlink:href="#13" y="2.171"/><use xlink:href="#14" y="4.342"/><use xlink:href="#15" y="6.513"/><use xlink:href="#16" y="8.684"/><use xlink:href="#17" y="10.855"/><use xlink:href="#18" y="13.026"/><use xlink:href="#19" y="15.197"/><use xlink:href="#20" y="17.368"/><use xlink:href="#21" y="21.71"/><use xlink:href="#22" y="23.881"/><use xlink:href="#23" y="26.052"/><use xlink:href="#24" y="28.223"/><use xlink:href="#25" y="30.394"/><use xlink:href="#26" y="32.565"/><use xlink:href="#20" y="34.736"/><use xlink:href="#27" y="36.907"/><use xlink:href="#28" y="39.078"/><use xlink:href="#29" y="41.249"/><use xlink:href="#30" y="43.42"/></svg><svg x="4940"><use xlink:href="#a"/><use xlink:href="#b" x="83.996" y="43.395"/><use xlink:href="#15"/><use xlink:href="#16" y="2.171"/><use xlink:href="#17" y="4.342"/><use xlink:href="#18" y="6.513"/><use xlink:href="#19" y="8.684"/><use xlink:href="#20" y="10.855"/><use xlink:href="#21" y="15.197"/><use xlink:href="#22" y="17.368"/><use xlink:href="#23" y="19.539"/><use xlink:href="#24" y="21.71"/><use xlink:href="#25" y="23.881"/><use xlink:href="#26" y="26.052"/><use xlink:href="#20" y="28.223"/><use xlink:href="#27" y="30.394"/><use xlink:href="#28" y="32.565"/><use xlink:href="#29" y="34.736"/><use xlink:href="#30" y="36.907"/><use xlink:href="#31" y="39.078"/><use xlink:href="#32" y="41.249"/><use xlink:href="#33" y="43.42"/></svg><svg x="5130"><use xlink:href="#a"/><use xlink:href="#b" x="35.996" y="43.395"/><use xlink:href="#16"/><use xlink:href="#17" y="2.171"/><use xlink:href="#18" y="4.342"/><use xlink:href="#19" y="6.513"/><use xlink:href="#20" y="8.684"/><use xlink:href="#21" y="13.026"/><use xlink:href="#22" y="15.197"/><use xlink:href="#23" y="17.368"/><use xlink:href="#24" y="19.539"/><use xlink:href="#25" y="21.71"/><use xlink:href="#26" y="23.881"/><use xlink:href="#20" y="26.052"/><use xlink:href="#27" y="28.223"/><use xlink:href="#28" y="30.394"/><use xlink:href="#29" y="32.565"/><use xlink:href="#30" y="34.736"/><use xlink:href="#31" y="36.907"/><use xlink:href="#32" y="39.078"/><use xlink:href="#33" y="41.249"/><use xlink:href="#34" y="43.42"/></svg><svg x="5320"><use xlink:href="#a"/><use xlink:href="#b" x="72.996" y="43.395"/><use xlink:href="#17"/><use xlink:href="#18" y="2.171"/><use xlink:href="#19" y="4.342"/><use xlink:href="#20" y="6.513"/><use xlink:href="#21" y="10.855"/><use xlink:href="#22" y="13.026"/><use xlink:href="#23" y="15.197"/><use xlink:href="#24" y="17.368"/><use xlink:href="#25" y="19.539"/><use xlink:href="#26" y="21.71"/><use xlink:href="#20" y="23.881"/><use xlink:href="#27" y="26.052"/><use xlink:href="#28" y="28.223"/><use xlink:href="#29" y="30.394"/><use xlink:href="#30" y="32.565"/><use xlink:href="#31" y="34.736"/><use xlink:href="#32" y="36.907"/><use xlink:href="#33" y="39.078"/><use xlink:href="#34" y="41.249"/><use xlink:href="#35" y="43.42"/></svg><svg x="5510"><use xlink:href="#a"/><use xlink:href="#b" x="-.004" y="43.395"/><use xlink:href="#18"/><use xlink:href="#19" y="2.171"/><use xlink:href="#20" y="4.342"/><use xlink:href="#21" y="8.684"/><use xlink:href="#22" y="10.855"/><use xlink:href="#23" y="13.026"/><use xlink:href="#24" y="15.197"/><use xlink:href="#25" y="17.368"/><use xlink:href="#26" y="19.539"/><use xlink:href="#20" y="21.71"/><use xlink:href="#27" y="23.881"/><use xlink:href="#28" y="26.052"/><use xlink:href="#29" y="28.223"/><use xlink:href="#30" y="30.394"/><use xlink:href="#31" y="32.565"/><use xlink:href="#32" y="34.736"/><use xlink:href="#33" y="36.907"/><use xlink:href="#34" y="39.078"/><use xlink:href="#35" y="41.249"/></svg></svg></g></g></svg></svg>
