<svg xmlns="http://www.w3.org/2000/svg" xmlns:xlink="http://www.w3.org/1999/xlink" width="1040" height="711.3"><rect width="1040" height="711.3" rx="5" ry="5" class="a"/><svg y="0%" x="0%"><circle cx="20" cy="20" r="6" fill="#ff5f58"/><circle cx="40" cy="20" r="6" fill="#ffbd2e"/><circle cx="60" cy="20" r="6" fill="#18c132"/></svg><svg height="651.3" viewBox="0 0 100 65.13" width="1000" x="15" xmlns="http://www.w3.org/2000/svg" xmlns:xlink="http://www.w3.org/1999/xlink" y="50"><style>@keyframes k{0%{transform:translateX(0)}.24%{transform:translateX(-100px)}1.34%{transform:translateX(-200px)}1.61%{transform:translateX(-300px)}2.89%{transform:translateX(-400px)}3.59%{transform:translateX(-500px)}3.95%{transform:translateX(-600px)}8.18%{transform:translateX(-700px)}8.39%{transform:translateX(-800px)}8.42%{transform:translateX(-900px)}11.69%{transform:translateX(-1000px)}11.79%{transform:translateX(-1100px)}13.99%{transform:translateX(-1200px)}14.18%{transform:translateX(-1300px)}14.2%{transform:translateX(-1400px)}14.77%{transform:translateX(-1500px)}14.79%{transform:translateX(-1600px)}14.85%{transform:translateX(-1700px)}66.37%{transform:translateX(-1800px)}71.06%{transform:translateX(-2500px)}71.08%{transform:translateX(-2600px)}94.38%{transform:translateX(-2800px)}94.42%{transform:translateX(-2900px)}95.73%{transform:translateX(-3000px)}96.02%{transform:translateX(-3100px)}96.25%{transform:translateX(-3200px)}96.45%{transform:translateX(-3300px)}96.8%{transform:translateX(-3400px)}96.81%{transform:translateX(-3600px)}96.84%{transform:translateX(-3700px)}to{transform:translateX(-3800px)}}.a{fill:#282d35}.f,.g,.h{white-space:pre}.f{fill:#a8cc8c;font-weight:700}.g,.h{fill:#b9c0cb}.h{fill:#71bef2;font-weight:700}</style><g font-family="Monaco,Consolas,Menlo,'Bitstream Vera Sans Mono','Powerline Symbols',monospace" font-size="1.67"><defs><symbol id="1"><text y="1.67" class="f">op@lok</text><text x="6.012" y="1.67" class="g">:</text><text x="7.014" y="1.67" class="h">~</text><text x="8.016" y="1.67" class="g">$</text><text x="10.02" y="1.67" class="g">ssh</text><text x="14.028" y="1.67" class="g">OP@192.168.1.196</text></symbol><symbol id="2"><text y="1.67" class="g">OP@192.168.1.196&apos;s</text><text x="19.038" y="1.67" class="g">password:</text></symbol><symbol id="3"><text y="1.67" class="g">Microsoft</text><text x="10.02" y="1.67" class="g">Windows</text><text x="18.036" y="1.67" class="g">[Version</text><text x="27.054" y="1.67" class="g">10.0.26100.6584]</text></symbol><symbol id="4"><text y="1.67" class="g">(c)</text><text x="4.008" y="1.67" class="g">Microsoft</text><text x="14.028" y="1.67" class="g">Corporation.</text><text x="27.054" y="1.67" class="g">All</text><text x="31.062" y="1.67" class="g">rights</text><text x="38.076" y="1.67" class="g">reserved.</text></symbol><symbol id="5"><text y="1.67" class="g">op@WIN11-LAB</text><text x="13.026" y="1.67" class="g">C:\Users\OP&gt;</text></symbol><symbol id="6"><text y="1.67" class="g">op@WIN11-LAB</text><text x="13.026" y="1.67" class="g">C:\Users\OP&gt;.\h</text></symbol><symbol id="7"><text y="1.67" class="g">op@WIN11-LAB</text><text x="13.026" y="1.67" class="g">C:\Users\OP&gt;.\halo.exe</text></symbol><symbol id="8"><text y="1.67" class="g">[2025-09-25</text><text x="12.024" y="1.67" class="g">09:57:43]</text><text x="22.044" y="1.67" class="g">[*]</text><text x="26.052" y="1.67" class="g">HALO</text><text x="31.062" y="1.67" class="g">(Hybrid</text><text x="39.078" y="1.67" class="g">Autonomous</text><text x="50.1" y="1.67" class="g">Logic</text><text x="56.112" y="1.67" class="g">Operator</text><text x="65.13" y="1.67" class="g">started.</text><text x="74.148" y="1.67" class="g">Self:</text><text x="80.16" y="1.67" class="g">halo.exe,</text><text x="90.18" y="1.67" class="g">Parent:</text><text x="98.196" y="1.67" class="g">cm</text></symbol><symbol id="9"><text y="1.67" class="g">d.exe</text></symbol><symbol id="10"><text x="8.016" y="1.67" class="g">&quot;refusal&quot;:</text><text x="19.038" y="1.67" class="g">null,</text></symbol><symbol id="11"><text x="8.016" y="1.67" class="g">&quot;annotations&quot;:</text><text x="23.046" y="1.67" class="g">[]</text></symbol><symbol id="12"><text x="6.012" y="1.67" class="g">},</text></symbol><symbol id="13"><text x="6.012" y="1.67" class="g">&quot;logprobs&quot;:</text><text x="18.036" y="1.67" class="g">null,</text></symbol><symbol id="14"><text x="6.012" y="1.67" class="g">&quot;finish_reason&quot;:</text><text x="23.046" y="1.67" class="g">&quot;stop&quot;</text></symbol><symbol id="15"><text x="4.008" y="1.67" class="g">}</text></symbol><symbol id="16"><text x="2.004" y="1.67" class="g">],</text></symbol><symbol id="17"><text x="2.004" y="1.67" class="g">&quot;usage&quot;:</text><text x="11.022" y="1.67" class="g">{</text></symbol><symbol id="18"><text x="4.008" y="1.67" class="g">&quot;prompt_tokens&quot;:</text><text x="21.042" y="1.67" class="g">3059,</text></symbol><symbol id="19"><text x="4.008" y="1.67" class="g">&quot;completion_tokens&quot;:</text><text x="25.05" y="1.67" class="g">72,</text></symbol><symbol id="20"><text x="4.008" y="1.67" class="g">&quot;total_tokens&quot;:</text><text x="20.04" y="1.67" class="g">3131,</text></symbol><symbol id="21"><text x="4.008" y="1.67" class="g">&quot;prompt_tokens_details&quot;:</text><text x="29.058" y="1.67" class="g">{</text></symbol><symbol id="22"><text x="6.012" y="1.67" class="g">&quot;cached_tokens&quot;:</text><text x="23.046" y="1.67" class="g">0,</text></symbol><symbol id="23"><text x="6.012" y="1.67" class="g">&quot;audio_tokens&quot;:</text><text x="22.044" y="1.67" class="g">0</text></symbol><symbol id="24"><text x="4.008" y="1.67" class="g">},</text></symbol><symbol id="25"><text x="4.008" y="1.67" class="g">&quot;completion_tokens_details&quot;:</text><text x="33.066" y="1.67" class="g">{</text></symbol><symbol id="26"><text x="6.012" y="1.67" class="g">&quot;reasoning_tokens&quot;:</text><text x="26.052" y="1.67" class="g">0,</text></symbol><symbol id="27"><text x="6.012" y="1.67" class="g">&quot;audio_tokens&quot;:</text><text x="22.044" y="1.67" class="g">0,</text></symbol><symbol id="28"><text x="6.012" y="1.67" class="g">&quot;accepted_prediction_tokens&quot;:</text><text x="36.072" y="1.67" class="g">0,</text></symbol><symbol id="29"><text x="2.004" y="1.67" class="g">&quot;system_fingerprint&quot;:</text><text x="24.048" y="1.67" class="g">&quot;fp_3502f4eb73&quot;</text></symbol><symbol id="30"><text y="1.67" class="g">}</text></symbol><symbol id="31"><text y="1.67" class="g">}</text><text x="2.004" y="1.67" class="g">&quot;service_tier&quot;:</text><text x="18.036" y="1.67" class="g">&quot;default&quot;,</text></symbol><symbol id="32"><text y="1.67" class="g">[2025-09-25</text><text x="12.024" y="1.67" class="g">09:58:17]</text><text x="22.044" y="1.67" class="g">[GPT</text><text x="27.054" y="1.67" class="g">Content]</text><text x="36.072" y="1.67" class="g">{</text></symbol><symbol id="33"><text x="2.004" y="1.67" class="g">&quot;allow&quot;:</text><text x="11.022" y="1.67" class="g">true,</text></symbol><symbol id="34"><text x="2.004" y="1.67" class="g">&quot;reason&quot;:</text><text x="12.024" y="1.67" class="g">&quot;All</text><text x="17.034" y="1.67" class="g">telemetry</text><text x="27.054" y="1.67" class="g">fields</text><text x="34.068" y="1.67" class="g">are</text><text x="38.076" y="1.67" class="g">within</text><text x="45.09" y="1.67" class="g">baseline:</text><text x="55.11" y="1.67" class="g">process</text><text x="63.126" y="1.67" class="g">list</text><text x="68.136" y="1.67" class="g">matches</text><text x="76.152" y="1.67" class="g">baseline,</text><text x="86.172" y="1.67" class="g">no</text><text x="89.178" y="1.67" class="g">suspicious</text></symbol><symbol id="35"><text y="1.67" class="g">drivers,</text><text x="9.018" y="1.67" class="g">no</text><text x="12.024" y="1.67" class="g">USB</text><text x="16.032" y="1.67" class="g">devices</text><text x="24.048" y="1.67" class="g">except</text><text x="31.062" y="1.67" class="g">system</text><text x="38.076" y="1.67" class="g">drive,</text><text x="45.09" y="1.67" class="g">single</text><text x="52.104" y="1.67" class="g">user</text><text x="57.114" y="1.67" class="g">logon,</text><text x="64.128" y="1.67" class="g">normal</text><text x="71.142" y="1.67" class="g">working</text><text x="79.158" y="1.67" class="g">hours,</text><text x="86.172" y="1.67" class="g">idle</text></symbol><symbol id="36"><text x="6.012" y="1.67" class="g">&quot;rejected_prediction_tokens&quot;:</text><text x="36.072" y="1.67" class="g">0</text><text x="99.198" y="1.67" class="g">t</text></symbol><symbol id="37"><text y="1.67" class="g">em</text><text x="3.006" y="1.67" class="g">drive,</text><text x="10.02" y="1.67" class="g">single</text><text x="17.034" y="1.67" class="g">user</text><text x="22.044" y="1.67" class="g">logon,</text><text x="29.058" y="1.67" class="g">normal</text><text x="36.072" y="1.67" class="g">working</text><text x="44.088" y="1.67" class="g">hours,</text><text x="51.102" y="1.67" class="g">idle</text><text x="56.112" y="1.67" class="g">time</text><text x="61.122" y="1.67" class="g">plausible,</text><text x="72.144" y="1.67" class="g">no</text><text x="75.15" y="1.67" class="g">sandbox</text><text x="83.166" y="1.67" class="g">or</text><text x="86.172" y="1.67" class="g">monitoring</text><text x="97.194" y="1.67" class="g">art</text></symbol><symbol id="38"><text y="1.67" class="g">ifacts</text><text x="7.014" y="1.67" class="g">detected,</text><text x="17.034" y="1.67" class="g">and</text><text x="21.042" y="1.67" class="g">deviation_count</text><text x="37.074" y="1.67" class="g">is</text><text x="40.08" y="1.67" class="g">0.</text><text x="43.086" y="1.67" class="g">Thoughts:</text></symbol><symbol id="39"><text y="1.67" class="g">[2025-09-25</text><text x="12.024" y="1.67" class="g">09:58:17]</text><text x="22.044" y="1.67" class="g">[GPT</text><text x="27.054" y="1.67" class="g">Decision]</text><text x="37.074" y="1.67" class="g">Allow:</text><text x="44.088" y="1.67" class="g">true</text><text x="49.098" y="1.67" class="g">Conf:</text><text x="55.11" y="1.67" class="g">0.98</text><text x="60.12" y="1.67" class="g">Reason:</text><text x="68.136" y="1.67" class="g">All</text><text x="72.144" y="1.67" class="g">telemetry</text><text x="82.164" y="1.67" class="g">fields</text><text x="89.178" y="1.67" class="g">are</text><text x="93.186" y="1.67" class="g">within</text></symbol><symbol id="40"><text y="1.67" class="g">baseline:</text><text x="10.02" y="1.67" class="g">process</text><text x="18.036" y="1.67" class="g">list</text><text x="23.046" y="1.67" class="g">matches</text><text x="31.062" y="1.67" class="g">baseline,</text><text x="41.082" y="1.67" class="g">no</text><text x="44.088" y="1.67" class="g">suspicious</text><text x="55.11" y="1.67" class="g">drivers,</text><text x="64.128" y="1.67" class="g">no</text><text x="67.134" y="1.67" class="g">USB</text><text x="71.142" y="1.67" class="g">devices</text><text x="79.158" y="1.67" class="g">except</text><text x="86.172" y="1.67" class="g">syst</text></symbol><symbol id="41"><text y="1.67" class="g">[2025-09-25</text><text x="12.024" y="1.67" class="g">09:58:17]</text><text x="22.044" y="1.67" class="g">[*]</text><text x="26.052" y="1.67" class="g">Decision:</text><text x="36.072" y="1.67" class="g">true</text><text x="41.082" y="1.67" class="g">(confidence</text><text x="53.106" y="1.67" class="g">0.98)</text></symbol><symbol id="42"><text x="6.012" y="1.67" class="g">&quot;rejected_prediction_tokens&quot;:</text><text x="36.072" y="1.67" class="g">0</text><text x="99.198" y="1.67" class="g">a</text></symbol><symbol id="43"><text y="1.67" class="g">l</text><text x="2.004" y="1.67" class="g">working</text><text x="10.02" y="1.67" class="g">hours,</text><text x="17.034" y="1.67" class="g">idle</text><text x="22.044" y="1.67" class="g">time</text><text x="27.054" y="1.67" class="g">plausible,</text><text x="38.076" y="1.67" class="g">no</text><text x="41.082" y="1.67" class="g">sandbox</text><text x="49.098" y="1.67" class="g">or</text><text x="52.104" y="1.67" class="g">monitoring</text><text x="63.126" y="1.67" class="g">artifacts</text><text x="73.146" y="1.67" class="g">detected,</text><text x="83.166" y="1.67" class="g">and</text><text x="87.174" y="1.67" class="g">deviation_cou</text></symbol><symbol id="44"><text y="1.67" class="g">nt</text><text x="3.006" y="1.67" class="g">is</text><text x="6.012" y="1.67" class="g">0.etected,</text><text x="17.034" y="1.67" class="g">and</text><text x="21.042" y="1.67" class="g">deviation_count</text><text x="37.074" y="1.67" class="g">is</text><text x="40.08" y="1.67" class="g">0.</text><text x="43.086" y="1.67" class="g">Thoughts:</text></symbol><symbol id="45"><text y="1.67" class="g">[2025-09-25</text><text x="12.024" y="1.67" class="g">09:58:17]</text><text x="22.044" y="1.67" class="g">[*]</text><text x="26.052" y="1.67" class="g">Reason:</text><text x="34.068" y="1.67" class="g">All</text><text x="38.076" y="1.67" class="g">telemetry</text><text x="48.096" y="1.67" class="g">fields</text><text x="55.11" y="1.67" class="g">are</text><text x="59.118" y="1.67" class="g">within</text><text x="66.132" y="1.67" class="g">baseline:</text><text x="76.152" y="1.67" class="g">process</text><text x="84.168" y="1.67" class="g">list</text><text x="89.178" y="1.67" class="g">matches</text><text x="97.194" y="1.67" class="g">bas</text></symbol><symbol id="46"><text y="1.67" class="g">eline,</text><text x="7.014" y="1.67" class="g">no</text><text x="10.02" y="1.67" class="g">suspicious</text><text x="21.042" y="1.67" class="g">drivers,</text><text x="30.06" y="1.67" class="g">no</text><text x="33.066" y="1.67" class="g">USB</text><text x="37.074" y="1.67" class="g">devices</text><text x="45.09" y="1.67" class="g">except</text><text x="52.104" y="1.67" class="g">system</text><text x="59.118" y="1.67" class="g">drive,</text><text x="66.132" y="1.67" class="g">single</text><text x="73.146" y="1.67" class="g">user</text><text x="78.156" y="1.67" class="g">logon,</text><text x="85.17" y="1.67" class="g">norma</text></symbol><symbol id="47"><text y="1.67" class="g">[2025-09-25</text><text x="12.024" y="1.67" class="g">09:58:17]</text><text x="22.044" y="1.67" class="g">[*]</text><text x="26.052" y="1.67" class="g">Thoughts:</text><text x="36.072" y="1.67" class="g">true</text><text x="41.082" y="1.67" class="g">(confidence</text><text x="53.106" y="1.67" class="g">0.98)</text></symbol><symbol id="48"><text y="1.67" class="g">[2025-09-25</text><text x="12.024" y="1.67" class="g">09:58:17]</text><text x="22.044" y="1.67" class="g">[+]</text><text x="26.052" y="1.67" class="g">Execution</text><text x="36.072" y="1.67" class="g">approved.</text><text x="46.092" y="1.67" class="g">executing</text><text x="56.112" y="1.67" class="g">shellcode</text><text x="66.132" y="1.67" class="g">inline.e:</text><text x="76.152" y="1.67" class="g">process</text><text x="84.168" y="1.67" class="g">list</text><text x="89.178" y="1.67" class="g">matches</text><text x="97.194" y="1.67" class="g">bas</text></symbol><symbol id="49"><text y="1.67" class="g">^Cine,</text><text x="7.014" y="1.67" class="g">no</text><text x="10.02" y="1.67" class="g">suspicious</text><text x="21.042" y="1.67" class="g">drivers,</text><text x="30.06" y="1.67" class="g">no</text><text x="33.066" y="1.67" class="g">USB</text><text x="37.074" y="1.67" class="g">devices</text><text x="45.09" y="1.67" class="g">except</text><text x="52.104" y="1.67" class="g">system</text><text x="59.118" y="1.67" class="g">drive,</text><text x="66.132" y="1.67" class="g">single</text><text x="73.146" y="1.67" class="g">user</text><text x="78.156" y="1.67" class="g">logon,</text><text x="85.17" y="1.67" class="g">norma</text></symbol><symbol id="50"><text y="1.67" class="g">op@WIN11-LAB</text><text x="13.026" y="1.67" class="g">C:\Users\OP&gt;exit</text></symbol><symbol id="51"><text y="1.67" class="g">Connection</text><text x="11.022" y="1.67" class="g">to</text><text x="14.028" y="1.67" class="g">192.168.1.196</text><text x="28.056" y="1.67" class="g">closed.</text><text x="36.072" y="1.67" class="g">{</text></symbol><symbol id="52"><text y="1.67" class="f">op@lok</text><text x="6.012" y="1.67" class="g">:</text><text x="7.014" y="1.67" class="h">~</text><text x="8.016" y="1.67" class="g">$</text><text x="11.022" y="1.67" class="g">true,</text></symbol><symbol id="a"><path fill="transparent" d="M0 0h100v31H0z"/></symbol><symbol id="b"><path fill="#6f7683" d="M0 0h1.102v2.171H0z"/></symbol></defs><path class="a" d="M0 0h100v65.13H0z"/><g style="animation-duration:60.365686s;animation-iteration-count:infinite;animation-name:k;animation-timing-function:steps(1,end)"><svg width="3900"><svg><use xlink:href="#a"/><use xlink:href="#b" x="-.004"/></svg><svg x="100"><use xlink:href="#a"/><use xlink:href="#b" x="9.996"/><text y="1.67" class="f">op@lok</text><text x="6.012" y="1.67" class="g">:</text><text x="7.014" y="1.67" class="h">~</text><text x="8.016" y="1.67" class="g">$</text></svg><svg x="200"><use xlink:href="#a"/><use xlink:href="#b" x="29.996"/><use xlink:href="#1"/></svg><svg x="300"><use xlink:href="#a"/><use xlink:href="#b" x="40.996"/><text y="1.67" class="f">op@lok</text><text x="6.012" y="1.67" class="g">:</text><text x="7.014" y="1.67" class="h">~</text><text x="8.016" y="1.67" class="g">$</text><text x="10.02" y="1.67" class="g">cp</text><text x="13.026" y="1.67" class="g">key.txt</text><text x="21.042" y="1.67" class="g">/opt/halo/shellcode/</text></svg><svg x="400"><use xlink:href="#a"/><use xlink:href="#b" x="29.996"/><use xlink:href="#1"/></svg><svg x="500"><use xlink:href="#a"/><use xlink:href="#b" x="-.004" y="2.146"/><use xlink:href="#1"/></svg><svg x="600"><use xlink:href="#a"/><use xlink:href="#b" x="28.996" y="2.146"/><use xlink:href="#1"/><use xlink:href="#2" y="2.171"/></svg><svg x="700"><use xlink:href="#a"/><use xlink:href="#b" x="-.004" y="4.317"/><use xlink:href="#1"/><use xlink:href="#2" y="2.171"/></svg><svg x="800"><use xlink:href="#a"/><use xlink:href="#b" x="-.004"/></svg><svg x="900"><use xlink:href="#a"/><use xlink:href="#b" x="24.996" y="6.488"/><use xlink:href="#3"/><use xlink:href="#4" y="2.171"/><use xlink:href="#5" y="6.513"/></svg><svg x="1000"><use xlink:href="#a"/><use xlink:href="#b" x="25.996" y="6.488"/><use xlink:href="#3"/><use xlink:href="#4" y="2.171"/><text y="8.183" class="g">op@WIN11-LAB</text><text x="13.026" y="8.183" class="g">C:\Users\OP&gt;.</text></svg><svg x="1100"><use xlink:href="#a"/><use xlink:href="#b" x="26.996" y="6.488"/><use xlink:href="#3"/><use xlink:href="#4" y="2.171"/><text y="8.183" class="g">op@WIN11-LAB</text><text x="13.026" y="8.183" class="g">C:\Users\OP&gt;.\</text></svg><svg x="1200"><use xlink:href="#a"/><use xlink:href="#b" x="27.996" y="6.488"/><use xlink:href="#3"/><use xlink:href="#4" y="2.171"/><use xlink:href="#6" y="6.513"/></svg><svg x="1300"><use xlink:href="#a"/><use xlink:href="#b" x="24.996" y="6.488"/><use xlink:href="#3"/><use xlink:href="#4" y="2.171"/><use xlink:href="#6" y="6.513"/></svg><svg x="1400"><use xlink:href="#a"/><use xlink:href="#b" x="34.996" y="6.488"/><use xlink:href="#3"/><use xlink:href="#4" y="2.171"/><use xlink:href="#7" y="6.513"/></svg><svg x="1500"><use xlink:href="#a"/><use xlink:href="#b" x="-.004" y="8.659"/><use xlink:href="#3"/><use xlink:href="#4" y="2.171"/><use xlink:href="#7" y="6.513"/></svg><svg x="1600"><use xlink:href="#a"/><use xlink:href="#b" x="-.004" y="8.659"/><use xlink:href="#3"/><use xlink:href="#4" y="2.171"/><use xlink:href="#7" y="6.513"/></svg><svg x="1700"><use xlink:href="#a"/><use xlink:href="#b" x="-.004" y="13.001"/><use xlink:href="#3"/><use xlink:href="#4" y="2.171"/><use xlink:href="#7" y="6.513"/><use xlink:href="#8" y="8.684"/><use xlink:href="#9" y="10.855"/></svg><svg x="1800"><use xlink:href="#a"/><use xlink:href="#b" x="-.004" y="15.172"/><use xlink:href="#3"/><use xlink:href="#4" y="2.171"/><use xlink:href="#7" y="6.513"/><use xlink:href="#8" y="8.684"/><use xlink:href="#9" y="10.855"/><text y="14.696" class="g">[2025-09-25</text><text x="12.024" y="14.696" class="g">09:58:14]</text><text x="22.044" y="14.696" class="g">[*]</text><text x="26.052" y="14.696" class="g">Collected</text><text x="36.072" y="14.696" class="g">telemetry.</text><text x="47.094" y="14.696" class="g">Querying</text><text x="56.112" y="14.696" class="g">GPT...</text></svg><svg x="1900"><use xlink:href="#a"/><use xlink:href="#b" x="-.004" y="65.105"/><text x="8.016" y="1.67" class="g">&quot;content&quot;:</text><text x="19.038" y="1.67" class="g">&quot;{\n</text><text x="25.05" y="1.67" class="g">\&quot;allow\&quot;:</text><text x="36.072" y="1.67" class="g">true,\n</text><text x="45.09" y="1.67" class="g">\&quot;reason\&quot;:</text><text x="57.114" y="1.67" class="g">\&quot;All</text><text x="63.126" y="1.67" class="g">telemetry</text><text x="73.146" y="1.67" class="g">fields</text><text x="80.16" y="1.67" class="g">are</text><text x="84.168" y="1.67" class="g">within</text><text x="91.182" y="1.67" class="g">baseline:</text><text x="1.002" y="3.841" class="g">process</text><text x="9.018" y="3.841" class="g">list</text><text x="14.028" y="3.841" class="g">matches</text><text x="22.044" y="3.841" class="g">baseline,</text><text x="32.064" y="3.841" class="g">no</text><text x="35.07" y="3.841" class="g">suspicious</text><text x="46.092" y="3.841" class="g">drivers,</text><text x="55.11" y="3.841" class="g">no</text><text x="58.116" y="3.841" class="g">USB</text><text x="62.124" y="3.841" class="g">devices</text><text x="70.14" y="3.841" class="g">except</text><text x="77.154" y="3.841" class="g">system</text><text x="84.168" y="3.841" class="g">drive,</text><text x="91.182" y="3.841" class="g">single</text><text x="98.196" y="3.841" class="g">us</text><text y="6.012" class="g">er</text><text x="3.006" y="6.012" class="g">logon,</text><text x="10.02" y="6.012" class="g">normal</text><text x="17.034" y="6.012" class="g">working</text><text x="25.05" y="6.012" class="g">hours,</text><text x="32.064" y="6.012" class="g">idle</text><text x="37.074" y="6.012" class="g">time</text><text x="42.084" y="6.012" class="g">plausible,</text><text x="53.106" y="6.012" class="g">no</text><text x="56.112" y="6.012" class="g">sandbox</text><text x="64.128" y="6.012" class="g">or</text><text x="67.134" y="6.012" class="g">monitoring</text><text x="78.156" y="6.012" class="g">artifacts</text><text x="88.176" y="6.012" class="g">detected,</text><text x="98.196" y="6.012" class="g">an</text><text y="8.183" class="g">d</text><text x="2.004" y="8.183" class="g">deviation_count</text><text x="18.036" y="8.183" class="g">is</text><text x="21.042" y="8.183" class="g">0.\&quot;,\n</text><text x="30.06" y="8.183" class="g">\&quot;conf\&quot;:</text><text x="40.08" y="8.183" class="g">0.98\n}&quot;,</text><use xlink:href="#10" y="8.684"/><use xlink:href="#11" y="10.855"/><use xlink:href="#12" y="13.026"/><use xlink:href="#13" y="15.197"/><use xlink:href="#14" y="17.368"/><use xlink:href="#15" y="19.539"/><use xlink:href="#16" y="21.71"/><use xlink:href="#17" y="23.881"/><use xlink:href="#18" y="26.052"/><use xlink:href="#19" y="28.223"/><use xlink:href="#20" y="30.394"/><use xlink:href="#21" y="32.565"/><use xlink:href="#22" y="34.736"/><use xlink:href="#23" y="36.907"/><use xlink:href="#24" y="39.078"/><use xlink:href="#25" y="41.249"/><use xlink:href="#26" y="43.42"/><use xlink:href="#27" y="45.591"/><use xlink:href="#28" y="47.762"/><text x="6.012" y="51.603" class="g">&quot;rejected_prediction_tokens&quot;:</text><text x="36.072" y="51.603" class="g">0</text><use xlink:href="#15" y="52.104"/><text x="2.004" y="55.945" class="g">},</text><text x="2.004" y="58.116" class="g">&quot;service_tier&quot;:</text><text x="18.036" y="58.116" class="g">&quot;default&quot;,</text><use xlink:href="#29" y="58.617"/><use xlink:href="#30" y="60.788"/></svg><svg x="2000"><use xlink:href="#a"/><use xlink:href="#b" x=".996" y="47.737"/><use xlink:href="#10"/><use xlink:href="#11" y="2.171"/><use xlink:href="#12" y="4.342"/><use xlink:href="#13" y="6.513"/><use xlink:href="#14" y="8.684"/><use xlink:href="#15" y="10.855"/><use xlink:href="#16" y="13.026"/><use xlink:href="#17" y="15.197"/><use xlink:href="#18" y="17.368"/><use xlink:href="#19" y="19.539"/><use xlink:href="#20" y="21.71"/><use xlink:href="#21" y="23.881"/><use xlink:href="#22" y="26.052"/><use xlink:href="#23" y="28.223"/><use xlink:href="#24" y="30.394"/><use xlink:href="#25" y="32.565"/><use xlink:href="#26" y="34.736"/><use xlink:href="#27" y="36.907"/><use xlink:href="#28" y="39.078"/><text x="6.012" y="42.919" class="g">&quot;rejected_prediction_tokens&quot;:</text><text x="36.072" y="42.919" class="g">0</text><text x="99.198" y="42.919" class="g">e</text><text x="1.002" y="45.09" class="g">time</text><text x="6.012" y="45.09" class="g">plausible,</text><text x="17.034" y="45.09" class="g">no</text><text x="20.04" y="45.09" class="g">sandbox</text><text x="28.056" y="45.09" class="g">or</text><text x="31.062" y="45.09" class="g">monitoring</text><text x="42.084" y="45.09" class="g">artifacts</text><text x="52.104" y="45.09" class="g">detected,</text><text x="62.124" y="45.09" class="g">and</text><text x="66.132" y="45.09" class="g">deviation_count</text><text x="82.164" y="45.09" class="g">is</text><text x="85.17" y="45.09" class="g">0.&quot;,</text><text x="2.004" y="47.261" class="g">&quot;conf&quot;:</text><text x="10.02" y="47.261" class="g">0.98</text><use xlink:href="#31" y="47.762"/><use xlink:href="#29" y="49.933"/><use xlink:href="#30" y="52.104"/><use xlink:href="#32" y="56.446"/><use xlink:href="#33" y="58.617"/><use xlink:href="#34" y="60.788"/><use xlink:href="#35" y="62.959"/></svg><svg x="2100"><use xlink:href="#a"/><use xlink:href="#b" x="52.996" y="45.566"/><use xlink:href="#10"/><use xlink:href="#11" y="2.171"/><use xlink:href="#12" y="4.342"/><use xlink:href="#13" y="6.513"/><use xlink:href="#14" y="8.684"/><use xlink:href="#15" y="10.855"/><use xlink:href="#16" y="13.026"/><use xlink:href="#17" y="15.197"/><use xlink:href="#18" y="17.368"/><use xlink:href="#19" y="19.539"/><use xlink:href="#20" y="21.71"/><use xlink:href="#21" y="23.881"/><use xlink:href="#22" y="26.052"/><use xlink:href="#23" y="28.223"/><use xlink:href="#24" y="30.394"/><use xlink:href="#25" y="32.565"/><use xlink:href="#26" y="34.736"/><use xlink:href="#27" y="36.907"/><use xlink:href="#28" y="39.078"/><use xlink:href="#36" y="41.249"/><use xlink:href="#37" y="43.42"/><use xlink:href="#38" y="45.591"/><use xlink:href="#31" y="47.762"/><use xlink:href="#39" y="49.933"/><use xlink:href="#40" y="52.104"/><use xlink:href="#32" y="56.446"/><use xlink:href="#33" y="58.617"/><use xlink:href="#34" y="60.788"/><use xlink:href="#35" y="62.959"/></svg><svg x="2200"><use xlink:href="#a"/><use xlink:href="#b" x="57.996" y="47.737"/><use xlink:href="#10"/><use xlink:href="#11" y="2.171"/><use xlink:href="#12" y="4.342"/><use xlink:href="#13" y="6.513"/><use xlink:href="#14" y="8.684"/><use xlink:href="#15" y="10.855"/><use xlink:href="#16" y="13.026"/><use xlink:href="#17" y="15.197"/><use xlink:href="#18" y="17.368"/><use xlink:href="#19" y="19.539"/><use xlink:href="#20" y="21.71"/><use xlink:href="#21" y="23.881"/><use xlink:href="#22" y="26.052"/><use xlink:href="#23" y="28.223"/><use xlink:href="#24" y="30.394"/><use xlink:href="#25" y="32.565"/><use xlink:href="#26" y="34.736"/><use xlink:href="#27" y="36.907"/><use xlink:href="#28" y="39.078"/><use xlink:href="#36" y="41.249"/><use xlink:href="#37" y="43.42"/><use xlink:href="#38" y="45.591"/><use xlink:href="#41" y="47.762"/><use xlink:href="#39" y="49.933"/><use xlink:href="#40" y="52.104"/><use xlink:href="#32" y="56.446"/><use xlink:href="#33" y="58.617"/><use xlink:href="#34" y="60.788"/><use xlink:href="#35" y="62.959"/></svg><svg x="2300"><use xlink:href="#a"/><use xlink:href="#b" x="7.996" y="45.566"/><use xlink:href="#10"/><use xlink:href="#11" y="2.171"/><use xlink:href="#12" y="4.342"/><use xlink:href="#13" y="6.513"/><use xlink:href="#14" y="8.684"/><use xlink:href="#15" y="10.855"/><use xlink:href="#16" y="13.026"/><use xlink:href="#17" y="15.197"/><use xlink:href="#18" y="17.368"/><use xlink:href="#19" y="19.539"/><use xlink:href="#20" y="21.71"/><use xlink:href="#21" y="23.881"/><use xlink:href="#22" y="26.052"/><use xlink:href="#23" y="28.223"/><use xlink:href="#24" y="30.394"/><use xlink:href="#25" y="32.565"/><use xlink:href="#26" y="34.736"/><use xlink:href="#27" y="36.907"/><use xlink:href="#28" y="39.078"/><use xlink:href="#42" y="41.249"/><use xlink:href="#43" y="43.42"/><use xlink:href="#44" y="45.591"/><use xlink:href="#41" y="47.762"/><use xlink:href="#45" y="49.933"/><use xlink:href="#46" y="52.104"/><use xlink:href="#32" y="56.446"/><use xlink:href="#33" y="58.617"/><use xlink:href="#34" y="60.788"/><use xlink:href="#35" y="62.959"/></svg><svg x="2400"><use xlink:href="#a"/><use xlink:href="#b" x="35.996" y="47.737"/><use xlink:href="#10"/><use xlink:href="#11" y="2.171"/><use xlink:href="#12" y="4.342"/><use xlink:href="#13" y="6.513"/><use xlink:href="#14" y="8.684"/><use xlink:href="#15" y="10.855"/><use xlink:href="#16" y="13.026"/><use xlink:href="#17" y="15.197"/><use xlink:href="#18" y="17.368"/><use xlink:href="#19" y="19.539"/><use xlink:href="#20" y="21.71"/><use xlink:href="#21" y="23.881"/><use xlink:href="#22" y="26.052"/><use xlink:href="#23" y="28.223"/><use xlink:href="#24" y="30.394"/><use xlink:href="#25" y="32.565"/><use xlink:href="#26" y="34.736"/><use xlink:href="#27" y="36.907"/><use xlink:href="#28" y="39.078"/><use xlink:href="#42" y="41.249"/><use xlink:href="#43" y="43.42"/><use xlink:href="#44" y="45.591"/><use xlink:href="#47" y="47.762"/><use xlink:href="#45" y="49.933"/><use xlink:href="#46" y="52.104"/><use xlink:href="#32" y="56.446"/><use xlink:href="#33" y="58.617"/><use xlink:href="#34" y="60.788"/><use xlink:href="#35" y="62.959"/></svg><svg x="2500"><use xlink:href="#a"/><use xlink:href="#b" x="72.996" y="49.908"/><use xlink:href="#10"/><use xlink:href="#11" y="2.171"/><use xlink:href="#12" y="4.342"/><use xlink:href="#13" y="6.513"/><use xlink:href="#14" y="8.684"/><use xlink:href="#15" y="10.855"/><use xlink:href="#16" y="13.026"/><use xlink:href="#17" y="15.197"/><use xlink:href="#18" y="17.368"/><use xlink:href="#19" y="19.539"/><use xlink:href="#20" y="21.71"/><use xlink:href="#21" y="23.881"/><use xlink:href="#22" y="26.052"/><use xlink:href="#23" y="28.223"/><use xlink:href="#24" y="30.394"/><use xlink:href="#25" y="32.565"/><use xlink:href="#26" y="34.736"/><use xlink:href="#27" y="36.907"/><use xlink:href="#28" y="39.078"/><use xlink:href="#42" y="41.249"/><use xlink:href="#43" y="43.42"/><use xlink:href="#44" y="45.591"/><use xlink:href="#47" y="47.762"/><use xlink:href="#48" y="49.933"/><use xlink:href="#46" y="52.104"/><use xlink:href="#32" y="56.446"/><use xlink:href="#33" y="58.617"/><use xlink:href="#34" y="60.788"/><use xlink:href="#35" y="62.959"/></svg><svg x="2600"><use xlink:href="#a"/><use xlink:href="#b" x="-.004" y="52.079"/><use xlink:href="#10"/><use xlink:href="#11" y="2.171"/><use xlink:href="#12" y="4.342"/><use xlink:href="#13" y="6.513"/><use xlink:href="#14" y="8.684"/><use xlink:href="#15" y="10.855"/><use xlink:href="#16" y="13.026"/><use xlink:href="#17" y="15.197"/><use xlink:href="#18" y="17.368"/><use xlink:href="#19" y="19.539"/><use xlink:href="#20" y="21.71"/><use xlink:href="#21" y="23.881"/><use xlink:href="#22" y="26.052"/><use xlink:href="#23" y="28.223"/><use xlink:href="#24" y="30.394"/><use xlink:href="#25" y="32.565"/><use xlink:href="#26" y="34.736"/><use xlink:href="#27" y="36.907"/><use xlink:href="#28" y="39.078"/><use xlink:href="#42" y="41.249"/><use xlink:href="#43" y="43.42"/><use xlink:href="#44" y="45.591"/><use xlink:href="#47" y="47.762"/><use xlink:href="#48" y="49.933"/><use xlink:href="#46" y="52.104"/><use xlink:href="#32" y="56.446"/><use xlink:href="#33" y="58.617"/><use xlink:href="#34" y="60.788"/><use xlink:href="#35" y="62.959"/></svg><svg x="2700"><use xlink:href="#a"/><use xlink:href="#b" x=".996" y="52.079"/><use xlink:href="#10"/><use xlink:href="#11" y="2.171"/><use xlink:href="#12" y="4.342"/><use xlink:href="#13" y="6.513"/><use xlink:href="#14" y="8.684"/><use xlink:href="#15" y="10.855"/><use xlink:href="#16" y="13.026"/><use xlink:href="#17" y="15.197"/><use xlink:href="#18" y="17.368"/><use xlink:href="#19" y="19.539"/><use xlink:href="#20" y="21.71"/><use xlink:href="#21" y="23.881"/><use xlink:href="#22" y="26.052"/><use xlink:href="#23" y="28.223"/><use xlink:href="#24" y="30.394"/><use xlink:href="#25" y="32.565"/><use xlink:href="#26" y="34.736"/><use xlink:href="#27" y="36.907"/><use xlink:href="#28" y="39.078"/><use xlink:href="#42" y="41.249"/><use xlink:href="#43" y="43.42"/><use xlink:href="#44" y="45.591"/><use xlink:href="#47" y="47.762"/><use xlink:href="#48" y="49.933"/><text y="53.774" class="g">^line,</text><text x="7.014" y="53.774" class="g">no</text><text x="10.02" y="53.774" class="g">suspicious</text><text x="21.042" y="53.774" class="g">drivers,</text><text x="30.06" y="53.774" class="g">no</text><text x="33.066" y="53.774" class="g">USB</text><text x="37.074" y="53.774" class="g">devices</text><text x="45.09" y="53.774" class="g">except</text><text x="52.104" y="53.774" class="g">system</text><text x="59.118" y="53.774" class="g">drive,</text><text x="66.132" y="53.774" class="g">single</text><text x="73.146" y="53.774" class="g">user</text><text x="78.156" y="53.774" class="g">logon,</text><text x="85.17" y="53.774" class="g">norma</text><use xlink:href="#32" y="56.446"/><use xlink:href="#33" y="58.617"/><use xlink:href="#34" y="60.788"/><use xlink:href="#35" y="62.959"/></svg><svg x="2800"><use xlink:href="#a"/><use xlink:href="#b" x="-.004" y="52.079"/><use xlink:href="#10"/><use xlink:href="#11" y="2.171"/><use xlink:href="#12" y="4.342"/><use xlink:href="#13" y="6.513"/><use xlink:href="#14" y="8.684"/><use xlink:href="#15" y="10.855"/><use xlink:href="#16" y="13.026"/><use xlink:href="#17" y="15.197"/><use xlink:href="#18" y="17.368"/><use xlink:href="#19" y="19.539"/><use xlink:href="#20" y="21.71"/><use xlink:href="#21" y="23.881"/><use xlink:href="#22" y="26.052"/><use xlink:href="#23" y="28.223"/><use xlink:href="#24" y="30.394"/><use xlink:href="#25" y="32.565"/><use xlink:href="#26" y="34.736"/><use xlink:href="#27" y="36.907"/><use xlink:href="#28" y="39.078"/><use xlink:href="#42" y="41.249"/><use xlink:href="#43" y="43.42"/><use xlink:href="#44" y="45.591"/><use xlink:href="#47" y="47.762"/><use xlink:href="#48" y="49.933"/><use xlink:href="#49" y="52.104"/><use xlink:href="#32" y="56.446"/><use xlink:href="#33" y="58.617"/><use xlink:href="#34" y="60.788"/><use xlink:href="#35" y="62.959"/></svg><svg x="2900"><use xlink:href="#a"/><use xlink:href="#b" x="24.996" y="54.25"/><use xlink:href="#10"/><use xlink:href="#11" y="2.171"/><use xlink:href="#12" y="4.342"/><use xlink:href="#13" y="6.513"/><use xlink:href="#14" y="8.684"/><use xlink:href="#15" y="10.855"/><use xlink:href="#16" y="13.026"/><use xlink:href="#17" y="15.197"/><use xlink:href="#18" y="17.368"/><use xlink:href="#19" y="19.539"/><use xlink:href="#20" y="21.71"/><use xlink:href="#21" y="23.881"/><use xlink:href="#22" y="26.052"/><use xlink:href="#23" y="28.223"/><use xlink:href="#24" y="30.394"/><use xlink:href="#25" y="32.565"/><use xlink:href="#26" y="34.736"/><use xlink:href="#27" y="36.907"/><use xlink:href="#28" y="39.078"/><use xlink:href="#42" y="41.249"/><use xlink:href="#43" y="43.42"/><use xlink:href="#44" y="45.591"/><use xlink:href="#47" y="47.762"/><use xlink:href="#48" y="49.933"/><use xlink:href="#49" y="52.104"/><use xlink:href="#5" y="54.275"/><use xlink:href="#32" y="56.446"/><use xlink:href="#33" y="58.617"/><use xlink:href="#34" y="60.788"/><use xlink:href="#35" y="62.959"/></svg><svg x="3000"><use xlink:href="#a"/><use xlink:href="#b" x="25.996" y="54.25"/><use xlink:href="#10"/><use xlink:href="#11" y="2.171"/><use xlink:href="#12" y="4.342"/><use xlink:href="#13" y="6.513"/><use xlink:href="#14" y="8.684"/><use xlink:href="#15" y="10.855"/><use xlink:href="#16" y="13.026"/><use xlink:href="#17" y="15.197"/><use xlink:href="#18" y="17.368"/><use xlink:href="#19" y="19.539"/><use xlink:href="#20" y="21.71"/><use xlink:href="#21" y="23.881"/><use xlink:href="#22" y="26.052"/><use xlink:href="#23" y="28.223"/><use xlink:href="#24" y="30.394"/><use xlink:href="#25" y="32.565"/><use xlink:href="#26" y="34.736"/><use xlink:href="#27" y="36.907"/><use xlink:href="#28" y="39.078"/><use xlink:href="#42" y="41.249"/><use xlink:href="#43" y="43.42"/><use xlink:href="#44" y="45.591"/><use xlink:href="#47" y="47.762"/><use xlink:href="#48" y="49.933"/><use xlink:href="#49" y="52.104"/><text y="55.945" class="g">op@WIN11-LAB</text><text x="13.026" y="55.945" class="g">C:\Users\OP&gt;e</text><use xlink:href="#32" y="56.446"/><use xlink:href="#33" y="58.617"/><use xlink:href="#34" y="60.788"/><use xlink:href="#35" y="62.959"/></svg><svg x="3100"><use xlink:href="#a"/><use xlink:href="#b" x="26.996" y="54.25"/><use xlink:href="#10"/><use xlink:href="#11" y="2.171"/><use xlink:href="#12" y="4.342"/><use xlink:href="#13" y="6.513"/><use xlink:href="#14" y="8.684"/><use xlink:href="#15" y="10.855"/><use xlink:href="#16" y="13.026"/><use xlink:href="#17" y="15.197"/><use xlink:href="#18" y="17.368"/><use xlink:href="#19" y="19.539"/><use xlink:href="#20" y="21.71"/><use xlink:href="#21" y="23.881"/><use xlink:href="#22" y="26.052"/><use xlink:href="#23" y="28.223"/><use xlink:href="#24" y="30.394"/><use xlink:href="#25" y="32.565"/><use xlink:href="#26" y="34.736"/><use xlink:href="#27" y="36.907"/><use xlink:href="#28" y="39.078"/><use xlink:href="#42" y="41.249"/><use xlink:href="#43" y="43.42"/><use xlink:href="#44" y="45.591"/><use xlink:href="#47" y="47.762"/><use xlink:href="#48" y="49.933"/><use xlink:href="#49" y="52.104"/><text y="55.945" class="g">op@WIN11-LAB</text><text x="13.026" y="55.945" class="g">C:\Users\OP&gt;ex</text><use xlink:href="#32" y="56.446"/><use xlink:href="#33" y="58.617"/><use xlink:href="#34" y="60.788"/><use xlink:href="#35" y="62.959"/></svg><svg x="3200"><use xlink:href="#a"/><use xlink:href="#b" x="27.996" y="54.25"/><use xlink:href="#10"/><use xlink:href="#11" y="2.171"/><use xlink:href="#12" y="4.342"/><use xlink:href="#13" y="6.513"/><use xlink:href="#14" y="8.684"/><use xlink:href="#15" y="10.855"/><use xlink:href="#16" y="13.026"/><use xlink:href="#17" y="15.197"/><use xlink:href="#18" y="17.368"/><use xlink:href="#19" y="19.539"/><use xlink:href="#20" y="21.71"/><use xlink:href="#21" y="23.881"/><use xlink:href="#22" y="26.052"/><use xlink:href="#23" y="28.223"/><use xlink:href="#24" y="30.394"/><use xlink:href="#25" y="32.565"/><use xlink:href="#26" y="34.736"/><use xlink:href="#27" y="36.907"/><use xlink:href="#28" y="39.078"/><use xlink:href="#42" y="41.249"/><use xlink:href="#43" y="43.42"/><use xlink:href="#44" y="45.591"/><use xlink:href="#47" y="47.762"/><use xlink:href="#48" y="49.933"/><use xlink:href="#49" y="52.104"/><text y="55.945" class="g">op@WIN11-LAB</text><text x="13.026" y="55.945" class="g">C:\Users\OP&gt;exi</text><use xlink:href="#32" y="56.446"/><use xlink:href="#33" y="58.617"/><use xlink:href="#34" y="60.788"/><use xlink:href="#35" y="62.959"/></svg><svg x="3300"><use xlink:href="#a"/><use xlink:href="#b" x="28.996" y="54.25"/><use xlink:href="#10"/><use xlink:href="#11" y="2.171"/><use xlink:href="#12" y="4.342"/><use xlink:href="#13" y="6.513"/><use xlink:href="#14" y="8.684"/><use xlink:href="#15" y="10.855"/><use xlink:href="#16" y="13.026"/><use xlink:href="#17" y="15.197"/><use xlink:href="#18" y="17.368"/><use xlink:href="#19" y="19.539"/><use xlink:href="#20" y="21.71"/><use xlink:href="#21" y="23.881"/><use xlink:href="#22" y="26.052"/><use xlink:href="#23" y="28.223"/><use xlink:href="#24" y="30.394"/><use xlink:href="#25" y="32.565"/><use xlink:href="#26" y="34.736"/><use xlink:href="#27" y="36.907"/><use xlink:href="#28" y="39.078"/><use xlink:href="#42" y="41.249"/><use xlink:href="#43" y="43.42"/><use xlink:href="#44" y="45.591"/><use xlink:href="#47" y="47.762"/><use xlink:href="#48" y="49.933"/><use xlink:href="#49" y="52.104"/><use xlink:href="#50" y="54.275"/><use xlink:href="#32" y="56.446"/><use xlink:href="#33" y="58.617"/><use xlink:href="#34" y="60.788"/><use xlink:href="#35" y="62.959"/></svg><svg x="3400"><use xlink:href="#a"/><use xlink:href="#b" x="-.004" y="56.421"/><use xlink:href="#10"/><use xlink:href="#11" y="2.171"/><use xlink:href="#12" y="4.342"/><use xlink:href="#13" y="6.513"/><use xlink:href="#14" y="8.684"/><use xlink:href="#15" y="10.855"/><use xlink:href="#16" y="13.026"/><use xlink:href="#17" y="15.197"/><use xlink:href="#18" y="17.368"/><use xlink:href="#19" y="19.539"/><use xlink:href="#20" y="21.71"/><use xlink:href="#21" y="23.881"/><use xlink:href="#22" y="26.052"/><use xlink:href="#23" y="28.223"/><use xlink:href="#24" y="30.394"/><use xlink:href="#25" y="32.565"/><use xlink:href="#26" y="34.736"/><use xlink:href="#27" y="36.907"/><use xlink:href="#28" y="39.078"/><use xlink:href="#42" y="41.249"/><use xlink:href="#43" y="43.42"/><use xlink:href="#44" y="45.591"/><use xlink:href="#47" y="47.762"/><use xlink:href="#48" y="49.933"/><use xlink:href="#49" y="52.104"/><use xlink:href="#50" y="54.275"/><use xlink:href="#32" y="56.446"/><use xlink:href="#33" y="58.617"/><use xlink:href="#34" y="60.788"/><use xlink:href="#35" y="62.959"/></svg><svg x="3500"><use xlink:href="#a"/><use xlink:href="#b" x="-.004" y="56.421"/><use xlink:href="#10"/><use xlink:href="#11" y="2.171"/><use xlink:href="#12" y="4.342"/><use xlink:href="#13" y="6.513"/><use xlink:href="#14" y="8.684"/><use xlink:href="#15" y="10.855"/><use xlink:href="#16" y="13.026"/><use xlink:href="#17" y="15.197"/><use xlink:href="#18" y="17.368"/><use xlink:href="#19" y="19.539"/><use xlink:href="#20" y="21.71"/><use xlink:href="#21" y="23.881"/><use xlink:href="#22" y="26.052"/><use xlink:href="#23" y="28.223"/><use xlink:href="#24" y="30.394"/><use xlink:href="#25" y="32.565"/><use xlink:href="#26" y="34.736"/><use xlink:href="#27" y="36.907"/><use xlink:href="#28" y="39.078"/><use xlink:href="#42" y="41.249"/><use xlink:href="#43" y="43.42"/><use xlink:href="#44" y="45.591"/><use xlink:href="#47" y="47.762"/><use xlink:href="#48" y="49.933"/><use xlink:href="#49" y="52.104"/><use xlink:href="#50" y="54.275"/><use xlink:href="#32" y="56.446"/><use xlink:href="#33" y="58.617"/><use xlink:href="#34" y="60.788"/><use xlink:href="#35" y="62.959"/></svg><svg x="3600"><use xlink:href="#a"/><use xlink:href="#b" x="-.004" y="58.592"/><use xlink:href="#10"/><use xlink:href="#11" y="2.171"/><use xlink:href="#12" y="4.342"/><use xlink:href="#13" y="6.513"/><use xlink:href="#14" y="8.684"/><use xlink:href="#15" y="10.855"/><use xlink:href="#16" y="13.026"/><use xlink:href="#17" y="15.197"/><use xlink:href="#18" y="17.368"/><use xlink:href="#19" y="19.539"/><use xlink:href="#20" y="21.71"/><use xlink:href="#21" y="23.881"/><use xlink:href="#22" y="26.052"/><use xlink:href="#23" y="28.223"/><use xlink:href="#24" y="30.394"/><use xlink:href="#25" y="32.565"/><use xlink:href="#26" y="34.736"/><use xlink:href="#27" y="36.907"/><use xlink:href="#28" y="39.078"/><use xlink:href="#42" y="41.249"/><use xlink:href="#43" y="43.42"/><use xlink:href="#44" y="45.591"/><use xlink:href="#47" y="47.762"/><use xlink:href="#48" y="49.933"/><use xlink:href="#49" y="52.104"/><use xlink:href="#50" y="54.275"/><use xlink:href="#51" y="56.446"/><use xlink:href="#33" y="58.617"/><use xlink:href="#34" y="60.788"/><use xlink:href="#35" y="62.959"/></svg><svg x="3700"><use xlink:href="#a"/><use xlink:href="#b" x="9.996" y="58.592"/><use xlink:href="#10"/><use xlink:href="#11" y="2.171"/><use xlink:href="#12" y="4.342"/><use xlink:href="#13" y="6.513"/><use xlink:href="#14" y="8.684"/><use xlink:href="#15" y="10.855"/><use xlink:href="#16" y="13.026"/><use xlink:href="#17" y="15.197"/><use xlink:href="#18" y="17.368"/><use xlink:href="#19" y="19.539"/><use xlink:href="#20" y="21.71"/><use xlink:href="#21" y="23.881"/><use xlink:href="#22" y="26.052"/><use xlink:href="#23" y="28.223"/><use xlink:href="#24" y="30.394"/><use xlink:href="#25" y="32.565"/><use xlink:href="#26" y="34.736"/><use xlink:href="#27" y="36.907"/><use xlink:href="#28" y="39.078"/><use xlink:href="#42" y="41.249"/><use xlink:href="#43" y="43.42"/><use xlink:href="#44" y="45.591"/><use xlink:href="#47" y="47.762"/><use xlink:href="#48" y="49.933"/><use xlink:href="#49" y="52.104"/><use xlink:href="#50" y="54.275"/><use xlink:href="#51" y="56.446"/><use xlink:href="#52" y="58.617"/><use xlink:href="#34" y="60.788"/><use xlink:href="#35" y="62.959"/></svg><svg x="3800"><use xlink:href="#a"/><use xlink:href="#b" x="-.004" y="62.934"/><use xlink:href="#10"/><use xlink:href="#11" y="2.171"/><use xlink:href="#12" y="4.342"/><use xlink:href="#13" y="6.513"/><use xlink:href="#14" y="8.684"/><use xlink:href="#15" y="10.855"/><use xlink:href="#16" y="13.026"/><use xlink:href="#17" y="15.197"/><use xlink:href="#18" y="17.368"/><use xlink:href="#19" y="19.539"/><use xlink:href="#20" y="21.71"/><use xlink:href="#21" y="23.881"/><use xlink:href="#22" y="26.052"/><use xlink:href="#23" y="28.223"/><use xlink:href="#24" y="30.394"/><use xlink:href="#25" y="32.565"/><use xlink:href="#26" y="34.736"/><use xlink:href="#27" y="36.907"/><use xlink:href="#28" y="39.078"/><use xlink:href="#42" y="41.249"/><use xlink:href="#43" y="43.42"/><use xlink:href="#44" y="45.591"/><use xlink:href="#47" y="47.762"/><use xlink:href="#48" y="49.933"/><use xlink:href="#49" y="52.104"/><use xlink:href="#50" y="54.275"/><use xlink:href="#51" y="56.446"/><use xlink:href="#52" y="58.617"/><text y="62.458" class="g">exiteason&quot;:</text><text x="12.024" y="62.458" class="g">&quot;All</text><text x="17.034" y="62.458" class="g">telemetry</text><text x="27.054" y="62.458" class="g">fields</text><text x="34.068" y="62.458" class="g">are</text><text x="38.076" y="62.458" class="g">within</text><text x="45.09" y="62.458" class="g">baseline:</text><text x="55.11" y="62.458" class="g">process</text><text x="63.126" y="62.458" class="g">list</text><text x="68.136" y="62.458" class="g">matches</text><text x="76.152" y="62.458" class="g">baseline,</text><text x="86.172" y="62.458" class="g">no</text><text x="89.178" y="62.458" class="g">suspicious</text><use xlink:href="#35" y="62.959"/></svg></svg></g></g></svg></svg>