<svg xmlns="http://www.w3.org/2000/svg" xmlns:xlink="http://www.w3.org/1999/xlink" width="1240" height="928.4"><rect width="1240" height="928.4" rx="5" ry="5" class="a"/><svg y="0%" x="0%"><circle cx="20" cy="20" r="6" fill="#ff5f58"/><circle cx="40" cy="20" r="6" fill="#ffbd2e"/><circle cx="60" cy="20" r="6" fill="#18c132"/></svg><svg height="868.4" viewBox="0 0 120 86.84" width="1200" x="15" xmlns="http://www.w3.org/2000/svg" xmlns:xlink="http://www.w3.org/1999/xlink" y="50"><style>@keyframes k{0%{transform:translateX(0)}.34%{transform:translateX(-120px)}3.23%{transform:translateX(-240px)}4.06%{transform:translateX(-480px)}4.66%{transform:translateX(-600px)}10.91%{transform:translateX(-720px)}11.22%{transform:translateX(-960px)}11.25%{transform:translateX(-1080px)}11.28%{transform:translateX(-1200px)}17.03%{transform:translateX(-1320px)}17.59%{transform:translateX(-1440px)}18.47%{transform:translateX(-1560px)}18.65%{transform:translateX(-1680px)}18.89%{transform:translateX(-1800px)}19.24%{transform:translateX(-1920px)}19.28%{transform:translateX(-2040px)}21.4%{transform:translateX(-2160px)}21.45%{transform:translateX(-2280px)}21.48%{transform:translateX(-2400px)}92.82%{transform:translateX(-2520px)}99.96%{transform:translateX(-3360px)}to{transform:translateX(-3480px)}}.a{fill:#282d35}.f,.g,.h{white-space:pre}.f{fill:#a8cc8c;font-weight:700}.g,.h{fill:#b9c0cb}.h{fill:#71bef2;font-weight:700}</style><g font-family="Monaco,Consolas,Menlo,'Bitstream Vera Sans Mono','Powerline Symbols',monospace" font-size="1.67"><defs><symbol id="1"><text y="1.67" class="f">op@lok</text><text x="6.012" y="1.67" class="g">:</text><text x="7.014" y="1.67" class="h">~/HALO</text><text x="13.026" y="1.67" class="g">$</text><text x="15.03" y="1.67" class="g">ssh</text><text x="19.038" y="1.67" class="g">OP@192.168.1.196</text></symbol><symbol id="2"><text y="1.67" class="g">OP@192.168.1.196&apos;s</text><text x="19.038" y="1.67" class="g">password:</text></symbol><symbol id="3"><text y="1.67" class="g">Microsoft</text><text x="10.02" y="1.67" class="g">Windows</text><text x="18.036" y="1.67" class="g">[Version</text><text x="27.054" y="1.67" class="g">10.0.26100.6584]</text></symbol><symbol id="4"><text y="1.67" class="g">(c)</text><text x="4.008" y="1.67" class="g">Microsoft</text><text x="14.028" y="1.67" class="g">Corporation.</text><text x="27.054" y="1.67" class="g">All</text><text x="31.062" y="1.67" class="g">rights</text><text x="38.076" y="1.67" class="g">reserved.</text></symbol><symbol id="5"><text y="1.67" class="g">op@WIN11-LAB</text><text x="13.026" y="1.67" class="g">C:\Users\OP&gt;.\hal</text></symbol><symbol id="6"><text y="1.67" class="g">op@WIN11-LAB</text><text x="13.026" y="1.67" class="g">C:\Users\OP&gt;.\halo.exe</text></symbol><symbol id="7"><text y="1.67" class="g">[2025-09-25</text><text x="12.024" y="1.67" class="g">09:19:24]</text><text x="22.044" y="1.67" class="g">[*]</text><text x="26.052" y="1.67" class="g">HALO</text><text x="31.062" y="1.67" class="g">(Hybrid</text><text x="39.078" y="1.67" class="g">Autonomous</text><text x="50.1" y="1.67" class="g">Logic</text><text x="56.112" y="1.67" class="g">Operator</text><text x="65.13" y="1.67" class="g">started.</text><text x="74.148" y="1.67" class="g">Self:</text><text x="80.16" y="1.67" class="g">halo.exe,</text><text x="90.18" y="1.67" class="g">Parent:</text><text x="98.196" y="1.67" class="g">cmd.exe</text></symbol><symbol id="8"><text x="2.004" y="1.67" class="g">&quot;choices&quot;:</text><text x="13.026" y="1.67" class="g">[</text></symbol><symbol id="9"><text x="4.008" y="1.67" class="g">{</text></symbol><symbol id="10"><text x="6.012" y="1.67" class="g">&quot;index&quot;:</text><text x="15.03" y="1.67" class="g">0,</text></symbol><symbol id="11"><text x="6.012" y="1.67" class="g">&quot;message&quot;:</text><text x="17.034" y="1.67" class="g">{</text></symbol><symbol id="12"><text x="8.016" y="1.67" class="g">&quot;role&quot;:</text><text x="16.032" y="1.67" class="g">&quot;assistant&quot;,</text></symbol><symbol id="13"><text x="8.016" y="1.67" class="g">&quot;content&quot;:</text><text x="19.038" y="1.67" class="g">&quot;{\n</text><text x="25.05" y="1.67" class="g">\&quot;allow\&quot;:</text><text x="36.072" y="1.67" class="g">true,\n</text><text x="45.09" y="1.67" class="g">\&quot;reason\&quot;:</text><text x="57.114" y="1.67" class="g">\&quot;All</text><text x="63.126" y="1.67" class="g">telemetry</text><text x="73.146" y="1.67" class="g">fields</text><text x="80.16" y="1.67" class="g">are</text><text x="84.168" y="1.67" class="g">within</text><text x="91.182" y="1.67" class="g">expected</text><text x="100.2" y="1.67" class="g">baselines.</text><text x="111.222" y="1.67" class="g">Only</text><text x="116.232" y="1.67" class="g">one</text></symbol><symbol id="14"><text y="1.67" class="g">deviation</text><text x="10.02" y="1.67" class="g">(presence</text><text x="20.04" y="1.67" class="g">of</text><text x="23.046" y="1.67" class="g">&apos;rundll32.exe&apos;</text><text x="38.076" y="1.67" class="g">not</text><text x="42.084" y="1.67" class="g">in</text><text x="45.09" y="1.67" class="g">baseline),</text><text x="56.112" y="1.67" class="g">but</text><text x="60.12" y="1.67" class="g">this</text><text x="65.13" y="1.67" class="g">is</text><text x="68.136" y="1.67" class="g">a</text><text x="70.14" y="1.67" class="g">common</text><text x="77.154" y="1.67" class="g">Windows</text><text x="85.17" y="1.67" class="g">process</text><text x="93.186" y="1.67" class="g">and</text><text x="97.194" y="1.67" class="g">not</text><text x="101.202" y="1.67" class="g">inherently</text><text x="112.224" y="1.67" class="g">suspicio</text></symbol><symbol id="15"><text y="1.67" class="g">us.</text><text x="4.008" y="1.67" class="g">No</text><text x="7.014" y="1.67" class="g">evidence</text><text x="16.032" y="1.67" class="g">of</text><text x="19.038" y="1.67" class="g">monitoring</text><text x="30.06" y="1.67" class="g">tools,</text><text x="37.074" y="1.67" class="g">sandbox</text><text x="45.09" y="1.67" class="g">artifacts,</text><text x="56.112" y="1.67" class="g">or</text><text x="59.118" y="1.67" class="g">abnormal</text><text x="68.136" y="1.67" class="g">drivers.</text><text x="77.154" y="1.67" class="g">Uptime,</text><text x="85.17" y="1.67" class="g">logon,</text><text x="92.184" y="1.67" class="g">USB,</text><text x="97.194" y="1.67" class="g">and</text><text x="101.202" y="1.67" class="g">network</text><text x="109.218" y="1.67" class="g">activity</text><text x="118.236" y="1.67" class="g">ar</text></symbol><symbol id="16"><text y="1.67" class="g">e</text><text x="2.004" y="1.67" class="g">consistent</text><text x="13.026" y="1.67" class="g">with</text><text x="18.036" y="1.67" class="g">a</text><text x="20.04" y="1.67" class="g">normal</text><text x="27.054" y="1.67" class="g">user</text><text x="32.064" y="1.67" class="g">session</text><text x="40.08" y="1.67" class="g">during</text><text x="47.094" y="1.67" class="g">working</text><text x="55.11" y="1.67" class="g">hours.</text><text x="62.124" y="1.67" class="g">Only</text><text x="67.134" y="1.67" class="g">Microsoft</text><text x="77.154" y="1.67" class="g">Defender/SmartScreen</text><text x="98.196" y="1.67" class="g">are</text><text x="102.204" y="1.67" class="g">present,</text><text x="111.222" y="1.67" class="g">which</text><text x="117.234" y="1.67" class="g">is</text></symbol><symbol id="17"><text y="1.67" class="g">expected.\&quot;,\n</text><text x="16.032" y="1.67" class="g">\&quot;conf\&quot;:</text><text x="26.052" y="1.67" class="g">0.97\n}&quot;,</text></symbol><symbol id="18"><text x="8.016" y="1.67" class="g">&quot;refusal&quot;:</text><text x="19.038" y="1.67" class="g">null,</text></symbol><symbol id="19"><text x="8.016" y="1.67" class="g">&quot;annotations&quot;:</text><text x="23.046" y="1.67" class="g">[]</text></symbol><symbol id="20"><text x="6.012" y="1.67" class="g">},</text></symbol><symbol id="21"><text x="6.012" y="1.67" class="g">&quot;logprobs&quot;:</text><text x="18.036" y="1.67" class="g">null,</text></symbol><symbol id="22"><text x="6.012" y="1.67" class="g">&quot;finish_reason&quot;:</text><text x="23.046" y="1.67" class="g">&quot;stop&quot;</text></symbol><symbol id="23"><text x="4.008" y="1.67" class="g">}</text></symbol><symbol id="24"><text x="2.004" y="1.67" class="g">],</text></symbol><symbol id="25"><text x="2.004" y="1.67" class="g">&quot;usage&quot;:</text><text x="11.022" y="1.67" class="g">{</text></symbol><symbol id="26"><text x="4.008" y="1.67" class="g">&quot;prompt_tokens&quot;:</text><text x="21.042" y="1.67" class="g">4705,</text></symbol><symbol id="27"><text x="6.012" y="1.67" class="g">&quot;audio_tokens&quot;:</text><text x="22.044" y="1.67" class="g">0</text></symbol><symbol id="28"><text x="4.008" y="1.67" class="g">},</text></symbol><symbol id="29"><text x="4.008" y="1.67" class="g">&quot;completion_tokens_details&quot;:</text><text x="33.066" y="1.67" class="g">{</text></symbol><symbol id="30"><text x="6.012" y="1.67" class="g">&quot;reasoning_tokens&quot;:</text><text x="26.052" y="1.67" class="g">0,</text></symbol><symbol id="31"><text x="6.012" y="1.67" class="g">&quot;audio_tokens&quot;:</text><text x="22.044" y="1.67" class="g">0,</text></symbol><symbol id="32"><text x="6.012" y="1.67" class="g">&quot;accepted_prediction_tokens&quot;:</text><text x="36.072" y="1.67" class="g">0,</text></symbol><symbol id="33"><text x="6.012" y="1.67" class="g">&quot;rejected_prediction_tokens&quot;:</text><text x="36.072" y="1.67" class="g">0</text></symbol><symbol id="34"><text x="2.004" y="1.67" class="g">},</text></symbol><symbol id="35"><text x="2.004" y="1.67" class="g">&quot;service_tier&quot;:</text><text x="18.036" y="1.67" class="g">&quot;default&quot;,</text></symbol><symbol id="36"><text x="2.004" y="1.67" class="g">&quot;system_fingerprint&quot;:</text><text x="24.048" y="1.67" class="g">&quot;fp_3502f4eb73&quot;</text></symbol><symbol id="37"><text y="1.67" class="g">}</text></symbol><symbol id="38"><text y="1.67" class="g">}</text><text x="6.012" y="1.67" class="g">&quot;cached_tokens&quot;:</text><text x="23.046" y="1.67" class="g">0,</text></symbol><symbol id="39"><text y="1.67" class="g">[2025-09-25</text><text x="12.024" y="1.67" class="g">09:19:58]</text><text x="22.044" y="1.67" class="g">[GPT</text><text x="27.054" y="1.67" class="g">Content]</text><text x="36.072" y="1.67" class="g">{</text></symbol><symbol id="40"><text x="2.004" y="1.67" class="g">&quot;allow&quot;:</text><text x="11.022" y="1.67" class="g">true,</text></symbol><symbol id="41"><text x="2.004" y="1.67" class="g">&quot;reason&quot;:</text><text x="12.024" y="1.67" class="g">&quot;All</text><text x="17.034" y="1.67" class="g">telemetry</text><text x="27.054" y="1.67" class="g">fields</text><text x="34.068" y="1.67" class="g">are</text><text x="38.076" y="1.67" class="g">within</text><text x="45.09" y="1.67" class="g">expected</text><text x="54.108" y="1.67" class="g">baselines.</text><text x="65.13" y="1.67" class="g">Only</text><text x="70.14" y="1.67" class="g">one</text><text x="74.148" y="1.67" class="g">deviation</text><text x="84.168" y="1.67" class="g">(presence</text><text x="94.188" y="1.67" class="g">of</text><text x="97.194" y="1.67" class="g">&apos;rundll32.exe&apos;</text><text x="112.224" y="1.67" class="g">not</text><text x="116.232" y="1.67" class="g">in</text><text x="119.238" y="1.67" class="g">b</text></symbol><symbol id="42"><text y="1.67" class="g">aseline),</text><text x="10.02" y="1.67" class="g">but</text><text x="14.028" y="1.67" class="g">this</text><text x="19.038" y="1.67" class="g">is</text><text x="22.044" y="1.67" class="g">a</text><text x="24.048" y="1.67" class="g">common</text><text x="31.062" y="1.67" class="g">Windows</text><text x="39.078" y="1.67" class="g">process</text><text x="47.094" y="1.67" class="g">and</text><text x="51.102" y="1.67" class="g">not</text><text x="55.11" y="1.67" class="g">inherently</text><text x="66.132" y="1.67" class="g">susp</text></symbol><symbol id="43"><text x="4.008" y="1.67" class="g">&quot;completion_tokens&quot;:</text><text x="25.05" y="1.67" class="g">108,</text><text x="119.238" y="1.67" class="g">n</text></symbol><symbol id="44"><text y="1.67" class="g">t</text><text x="2.004" y="1.67" class="g">with</text><text x="7.014" y="1.67" class="g">a</text><text x="9.018" y="1.67" class="g">normal</text><text x="16.032" y="1.67" class="g">user</text><text x="21.042" y="1.67" class="g">session</text><text x="29.058" y="1.67" class="g">during</text><text x="36.072" y="1.67" class="g">working</text><text x="44.088" y="1.67" class="g">hours.</text><text x="51.102" y="1.67" class="g">Only</text><text x="56.112" y="1.67" class="g">Microsoft</text><text x="66.132" y="1.67" class="g">Defender/SmartScreen</text><text x="87.174" y="1.67" class="g">are</text><text x="91.182" y="1.67" class="g">present,</text><text x="100.2" y="1.67" class="g">which</text><text x="106.212" y="1.67" class="g">is</text><text x="109.218" y="1.67" class="g">expected.</text><text x="119.238" y="1.67" class="g">T</text></symbol><symbol id="45"><text y="1.67" class="g">houghts:rivers.</text><text x="16.032" y="1.67" class="g">Uptime,</text><text x="24.048" y="1.67" class="g">logon,</text><text x="31.062" y="1.67" class="g">USB,</text><text x="36.072" y="1.67" class="g">and</text><text x="40.08" y="1.67" class="g">network</text><text x="48.096" y="1.67" class="g">activity</text><text x="57.114" y="1.67" class="g">are</text><text x="61.122" y="1.67" class="g">consisten</text></symbol><symbol id="46"><text y="1.67" class="g">[2025-09-25</text><text x="12.024" y="1.67" class="g">09:19:58]</text><text x="22.044" y="1.67" class="g">[GPT</text><text x="27.054" y="1.67" class="g">Decision]</text><text x="37.074" y="1.67" class="g">Allow:</text><text x="44.088" y="1.67" class="g">true</text><text x="49.098" y="1.67" class="g">Conf:</text><text x="55.11" y="1.67" class="g">0.97</text><text x="60.12" y="1.67" class="g">Reason:</text><text x="68.136" y="1.67" class="g">All</text><text x="72.144" y="1.67" class="g">telemetry</text><text x="82.164" y="1.67" class="g">fields</text><text x="89.178" y="1.67" class="g">are</text><text x="93.186" y="1.67" class="g">within</text><text x="100.2" y="1.67" class="g">expected</text><text x="109.218" y="1.67" class="g">baselines.</text></symbol><symbol id="47"><text y="1.67" class="g">Only</text><text x="5.01" y="1.67" class="g">one</text><text x="9.018" y="1.67" class="g">deviation</text><text x="19.038" y="1.67" class="g">(presence</text><text x="29.058" y="1.67" class="g">of</text><text x="32.064" y="1.67" class="g">&apos;rundll32.exe&apos;</text><text x="47.094" y="1.67" class="g">not</text><text x="51.102" y="1.67" class="g">in</text><text x="54.108" y="1.67" class="g">baseline),</text><text x="65.13" y="1.67" class="g">but</text><text x="69.138" y="1.67" class="g">t</text></symbol><symbol id="48"><text y="1.67" class="g">[2025-09-25</text><text x="12.024" y="1.67" class="g">09:19:58]</text><text x="22.044" y="1.67" class="g">[*]</text><text x="26.052" y="1.67" class="g">Decision:</text><text x="36.072" y="1.67" class="g">true</text><text x="41.082" y="1.67" class="g">(confidence</text><text x="53.106" y="1.67" class="g">0.97)</text></symbol><symbol id="49"><text y="1.67" class="g">g</text><text x="2.004" y="1.67" class="g">working</text><text x="10.02" y="1.67" class="g">hours.</text><text x="17.034" y="1.67" class="g">Only</text><text x="22.044" y="1.67" class="g">Microsoft</text><text x="32.064" y="1.67" class="g">Defender/SmartScreen</text><text x="53.106" y="1.67" class="g">are</text><text x="57.114" y="1.67" class="g">present,</text><text x="66.132" y="1.67" class="g">which</text><text x="72.144" y="1.67" class="g">is</text><text x="75.15" y="1.67" class="g">expected.abnormal</text><text x="93.186" y="1.67" class="g">drivers.</text><text x="102.204" y="1.67" class="g">Uptime,</text><text x="110.22" y="1.67" class="g">logon,</text><text x="117.234" y="1.67" class="g">USB</text></symbol><symbol id="50"><text y="1.67" class="g">[2025-09-25</text><text x="12.024" y="1.67" class="g">09:19:58]</text><text x="22.044" y="1.67" class="g">[*]</text><text x="26.052" y="1.67" class="g">Reason:</text><text x="34.068" y="1.67" class="g">All</text><text x="38.076" y="1.67" class="g">telemetry</text><text x="48.096" y="1.67" class="g">fields</text><text x="55.11" y="1.67" class="g">are</text><text x="59.118" y="1.67" class="g">within</text><text x="66.132" y="1.67" class="g">expected</text><text x="75.15" y="1.67" class="g">baselines.</text><text x="86.172" y="1.67" class="g">Only</text><text x="91.182" y="1.67" class="g">one</text><text x="95.19" y="1.67" class="g">deviation</text><text x="105.21" y="1.67" class="g">(presence</text><text x="115.23" y="1.67" class="g">of</text><text x="118.236" y="1.67" class="g">&apos;r</text></symbol><symbol id="51"><text y="1.67" class="g">undll32.exe&apos;</text><text x="13.026" y="1.67" class="g">not</text><text x="17.034" y="1.67" class="g">in</text><text x="20.04" y="1.67" class="g">baseline),</text><text x="31.062" y="1.67" class="g">but</text><text x="35.07" y="1.67" class="g">this</text><text x="40.08" y="1.67" class="g">is</text><text x="43.086" y="1.67" class="g">a</text><text x="45.09" y="1.67" class="g">common</text><text x="52.104" y="1.67" class="g">Windows</text><text x="60.12" y="1.67" class="g">process</text><text x="68.136" y="1.67" class="g">an</text></symbol><symbol id="52"><text y="1.67" class="g">[2025-09-25</text><text x="12.024" y="1.67" class="g">09:19:58]</text><text x="22.044" y="1.67" class="g">[*]</text><text x="26.052" y="1.67" class="g">Thoughts:nt</text><text x="38.076" y="1.67" class="g">with</text><text x="43.086" y="1.67" class="g">a</text><text x="45.09" y="1.67" class="g">normal</text><text x="52.104" y="1.67" class="g">user</text><text x="57.114" y="1.67" class="g">session</text><text x="65.13" y="1.67" class="g">durin</text></symbol><symbol id="53"><text y="1.67" class="g">[2025-09-25</text><text x="12.024" y="1.67" class="g">09:19:58]</text><text x="22.044" y="1.67" class="g">[+]</text><text x="26.052" y="1.67" class="g">Execution</text><text x="36.072" y="1.67" class="g">approved.</text><text x="46.092" y="1.67" class="g">executing</text><text x="56.112" y="1.67" class="g">shellcode</text><text x="66.132" y="1.67" class="g">inline.</text></symbol><symbol id="a"><path fill="transparent" d="M0 0h120v41H0z"/></symbol><symbol id="b"><path fill="#6f7683" d="M0 0h1.102v2.171H0z"/></symbol></defs><path class="a" d="M0 0h120v86.84H0z"/><g style="animation-duration:43.540482s;animation-iteration-count:infinite;animation-name:k;animation-timing-function:steps(1,end)"><svg width="3600"><svg><use xlink:href="#a"/><use xlink:href="#b" x="-.004"/></svg><svg x="120"><use xlink:href="#a"/><use xlink:href="#b" x="14.996"/><text y="1.67" class="f">op@lok</text><text x="6.012" y="1.67" class="g">:</text><text x="7.014" y="1.67" class="h">~/HALO</text><text x="13.026" y="1.67" class="g">$</text></svg><svg x="240"><use xlink:href="#a"/><use xlink:href="#b" x="34.996"/><text y="1.67" class="f">op@lok</text><text x="6.012" y="1.67" class="g">:</text><text x="7.014" y="1.67" class="h">~/HALO</text><text x="13.026" y="1.67" class="g">$</text><path fill="#b9c0cb" d="M15.03 0h20v2.171h-20z"/><text x="15.03" y="1.67" style="white-space:pre" fill="#282d35">ssh OP@192.168.1.196</text></svg><svg x="360"><use xlink:href="#a"/><use xlink:href="#b" x="-.004" y="2.146"/><use xlink:href="#1"/></svg><svg x="480"><use xlink:href="#a"/><use xlink:href="#b" x="-.004" y="2.146"/><use xlink:href="#1"/></svg><svg x="600"><use xlink:href="#a"/><use xlink:href="#b" x="28.996" y="2.146"/><use xlink:href="#1"/><use xlink:href="#2" y="2.171"/></svg><svg x="720"><use xlink:href="#a"/><use xlink:href="#b" x="-.004" y="4.317"/><use xlink:href="#1"/><use xlink:href="#2" y="2.171"/></svg><svg x="840"><use xlink:href="#a"/><use xlink:href="#b" x="-.004" y="4.317"/><use xlink:href="#1"/><use xlink:href="#2" y="2.171"/></svg><svg x="960"><use xlink:href="#a"/><use xlink:href="#b" x="-.004"/></svg><svg x="1080"><use xlink:href="#a"/><use xlink:href="#b" x="42.996"/><use xlink:href="#3"/></svg><svg x="1200"><use xlink:href="#a"/><use xlink:href="#b" x="24.996" y="6.488"/><use xlink:href="#3"/><use xlink:href="#4" y="2.171"/><text y="8.183" class="g">op@WIN11-LAB</text><text x="13.026" y="8.183" class="g">C:\Users\OP&gt;</text></svg><svg x="1320"><use xlink:href="#a"/><use xlink:href="#b" x="25.996" y="6.488"/><use xlink:href="#3"/><use xlink:href="#4" y="2.171"/><text y="8.183" class="g">op@WIN11-LAB</text><text x="13.026" y="8.183" class="g">C:\Users\OP&gt;.</text></svg><svg x="1440"><use xlink:href="#a"/><use xlink:href="#b" x="26.996" y="6.488"/><use xlink:href="#3"/><use xlink:href="#4" y="2.171"/><text y="8.183" class="g">op@WIN11-LAB</text><text x="13.026" y="8.183" class="g">C:\Users\OP&gt;.\</text></svg><svg x="1560"><use xlink:href="#a"/><use xlink:href="#b" x="27.996" y="6.488"/><use xlink:href="#3"/><use xlink:href="#4" y="2.171"/><text y="8.183" class="g">op@WIN11-LAB</text><text x="13.026" y="8.183" class="g">C:\Users\OP&gt;.\h</text></svg><svg x="1680"><use xlink:href="#a"/><use xlink:href="#b" x="28.996" y="6.488"/><use xlink:href="#3"/><use xlink:href="#4" y="2.171"/><text y="8.183" class="g">op@WIN11-LAB</text><text x="13.026" y="8.183" class="g">C:\Users\OP&gt;.\ha</text></svg><svg x="1800"><use xlink:href="#a"/><use xlink:href="#b" x="29.996" y="6.488"/><use xlink:href="#3"/><use xlink:href="#4" y="2.171"/><use xlink:href="#5" y="6.513"/></svg><svg x="1920"><use xlink:href="#a"/><use xlink:href="#b" x="24.996" y="6.488"/><use xlink:href="#3"/><use xlink:href="#4" y="2.171"/><use xlink:href="#5" y="6.513"/></svg><svg x="2040"><use xlink:href="#a"/><use xlink:href="#b" x="34.996" y="6.488"/><use xlink:href="#3"/><use xlink:href="#4" y="2.171"/><use xlink:href="#6" y="6.513"/></svg><svg x="2160"><use xlink:href="#a"/><use xlink:href="#b" x="-.004" y="8.659"/><use xlink:href="#3"/><use xlink:href="#4" y="2.171"/><use xlink:href="#6" y="6.513"/></svg><svg x="2280"><use xlink:href="#a"/><use xlink:href="#b" x="-.004" y="8.659"/><use xlink:href="#3"/><use xlink:href="#4" y="2.171"/><use xlink:href="#6" y="6.513"/></svg><svg x="2400"><use xlink:href="#a"/><use xlink:href="#b" x="-.004" y="10.83"/><use xlink:href="#3"/><use xlink:href="#4" y="2.171"/><use xlink:href="#6" y="6.513"/><use xlink:href="#7" y="8.684"/></svg><svg x="2520"><use xlink:href="#a"/><use xlink:href="#b" x="-.004" y="13.001"/><use xlink:href="#3"/><use xlink:href="#4" y="2.171"/><use xlink:href="#6" y="6.513"/><use xlink:href="#7" y="8.684"/><text y="12.525" class="g">[2025-09-25</text><text x="12.024" y="12.525" class="g">09:19:55]</text><text x="22.044" y="12.525" class="g">[*]</text><text x="26.052" y="12.525" class="g">Collected</text><text x="36.072" y="12.525" class="g">telemetry.</text><text x="47.094" y="12.525" class="g">Querying</text><text x="56.112" y="12.525" class="g">GPT...</text></svg><svg x="2640"><use xlink:href="#a"/><use xlink:href="#b" x="-.004" y="86.815"/><text x="2.004" y="1.67" class="g">&quot;id&quot;:</text><text x="8.016" y="1.67" class="g">&quot;chatcmpl-CJgB7RJLbPK3euGTpvWGVaFkoM291&quot;,</text><text x="2.004" y="3.841" class="g">&quot;object&quot;:</text><text x="12.024" y="3.841" class="g">&quot;chat.completion&quot;,</text><text x="2.004" y="6.012" class="g">&quot;created&quot;:</text><text x="13.026" y="6.012" class="g">1758806401,</text><text x="2.004" y="8.183" class="g">&quot;model&quot;:</text><text x="11.022" y="8.183" class="g">&quot;gpt-4.1-2025-04-14&quot;,</text><use xlink:href="#8" y="8.684"/><use xlink:href="#9" y="10.855"/><use xlink:href="#10" y="13.026"/><use xlink:href="#11" y="15.197"/><use xlink:href="#12" y="17.368"/><use xlink:href="#13" y="19.539"/><use xlink:href="#14" y="21.71"/><use xlink:href="#15" y="23.881"/><use xlink:href="#16" y="26.052"/><use xlink:href="#17" y="28.223"/><use xlink:href="#18" y="30.394"/><use xlink:href="#19" y="32.565"/><use xlink:href="#20" y="34.736"/><use xlink:href="#21" y="36.907"/><use xlink:href="#22" y="39.078"/><use xlink:href="#23" y="41.249"/><use xlink:href="#24" y="43.42"/><use xlink:href="#25" y="45.591"/><use xlink:href="#26" y="47.762"/><text x="4.008" y="51.603" class="g">&quot;completion_tokens&quot;:</text><text x="25.05" y="51.603" class="g">108,</text><text x="4.008" y="53.774" class="g">&quot;total_tokens&quot;:</text><text x="20.04" y="53.774" class="g">4813,</text><text x="4.008" y="55.945" class="g">&quot;prompt_tokens_details&quot;:</text><text x="29.058" y="55.945" class="g">{</text><text x="6.012" y="58.116" class="g">&quot;cached_tokens&quot;:</text><text x="23.046" y="58.116" class="g">0,</text><use xlink:href="#27" y="58.617"/><use xlink:href="#28" y="60.788"/><use xlink:href="#29" y="62.959"/><use xlink:href="#30" y="65.13"/><use xlink:href="#31" y="67.301"/><use xlink:href="#32" y="69.472"/><use xlink:href="#33" y="71.643"/><use xlink:href="#23" y="73.814"/><use xlink:href="#34" y="75.985"/><use xlink:href="#35" y="78.156"/><use xlink:href="#36" y="80.327"/><use xlink:href="#37" y="82.498"/></svg><svg x="2760"><use xlink:href="#a"/><use xlink:href="#b" x=".996" y="47.737"/><use xlink:href="#8"/><use xlink:href="#9" y="2.171"/><use xlink:href="#10" y="4.342"/><use xlink:href="#11" y="6.513"/><use xlink:href="#12" y="8.684"/><use xlink:href="#13" y="10.855"/><use xlink:href="#14" y="13.026"/><use xlink:href="#15" y="15.197"/><use xlink:href="#16" y="17.368"/><use xlink:href="#17" y="19.539"/><use xlink:href="#18" y="21.71"/><use xlink:href="#19" y="23.881"/><use xlink:href="#20" y="26.052"/><use xlink:href="#21" y="28.223"/><use xlink:href="#22" y="30.394"/><use xlink:href="#23" y="32.565"/><use xlink:href="#24" y="34.736"/><use xlink:href="#25" y="36.907"/><use xlink:href="#26" y="39.078"/><text x="4.008" y="42.919" class="g">&quot;completion_tokens&quot;:</text><text x="25.05" y="42.919" class="g">108,</text><text x="119.238" y="42.919" class="g">y</text><text x="1.002" y="45.09" class="g">Microsoft</text><text x="11.022" y="45.09" class="g">Defender/SmartScreen</text><text x="32.064" y="45.09" class="g">are</text><text x="36.072" y="45.09" class="g">present,</text><text x="45.09" y="45.09" class="g">which</text><text x="51.102" y="45.09" class="g">is</text><text x="54.108" y="45.09" class="g">expected.&quot;,normal</text><text x="72.144" y="45.09" class="g">drivers.</text><text x="81.162" y="45.09" class="g">Uptime,</text><text x="89.178" y="45.09" class="g">logon,</text><text x="96.192" y="45.09" class="g">USB,</text><text x="101.202" y="45.09" class="g">and</text><text x="105.21" y="45.09" class="g">network</text><text x="113.226" y="45.09" class="g">activit</text><text x="2.004" y="47.261" class="g">&quot;conf&quot;:</text><text x="10.02" y="47.261" class="g">0.97nt</text><text x="17.034" y="47.261" class="g">with</text><text x="22.044" y="47.261" class="g">a</text><text x="24.048" y="47.261" class="g">normal</text><text x="31.062" y="47.261" class="g">user</text><text x="36.072" y="47.261" class="g">session</text><text x="44.088" y="47.261" class="g">during</text><text x="51.102" y="47.261" class="g">working</text><text x="59.118" y="47.261" class="g">hours.</text><text x="66.132" y="47.261" class="g">Only</text><use xlink:href="#38" y="47.762"/><use xlink:href="#27" y="49.933"/><use xlink:href="#28" y="52.104"/><use xlink:href="#29" y="54.275"/><use xlink:href="#30" y="56.446"/><use xlink:href="#31" y="58.617"/><use xlink:href="#32" y="60.788"/><use xlink:href="#33" y="62.959"/><use xlink:href="#23" y="65.13"/><use xlink:href="#34" y="67.301"/><use xlink:href="#35" y="69.472"/><use xlink:href="#36" y="71.643"/><use xlink:href="#37" y="73.814"/><use xlink:href="#39" y="78.156"/><use xlink:href="#40" y="80.327"/><use xlink:href="#41" y="82.498"/><use xlink:href="#42" y="84.669"/></svg><svg x="2880"><use xlink:href="#a"/><use xlink:href="#b" x="8.996" y="45.566"/><use xlink:href="#8"/><use xlink:href="#9" y="2.171"/><use xlink:href="#10" y="4.342"/><use xlink:href="#11" y="6.513"/><use xlink:href="#12" y="8.684"/><use xlink:href="#13" y="10.855"/><use xlink:href="#14" y="13.026"/><use xlink:href="#15" y="15.197"/><use xlink:href="#16" y="17.368"/><use xlink:href="#17" y="19.539"/><use xlink:href="#18" y="21.71"/><use xlink:href="#19" y="23.881"/><use xlink:href="#20" y="26.052"/><use xlink:href="#21" y="28.223"/><use xlink:href="#22" y="30.394"/><use xlink:href="#23" y="32.565"/><use xlink:href="#24" y="34.736"/><use xlink:href="#25" y="36.907"/><use xlink:href="#26" y="39.078"/><use xlink:href="#43" y="41.249"/><use xlink:href="#44" y="43.42"/><use xlink:href="#45" y="45.591"/><use xlink:href="#38" y="47.762"/><use xlink:href="#46" y="49.933"/><use xlink:href="#47" y="52.104"/><use xlink:href="#29" y="54.275"/><use xlink:href="#30" y="56.446"/><use xlink:href="#31" y="58.617"/><use xlink:href="#32" y="60.788"/><use xlink:href="#33" y="62.959"/><use xlink:href="#23" y="65.13"/><use xlink:href="#34" y="67.301"/><use xlink:href="#35" y="69.472"/><use xlink:href="#36" y="71.643"/><use xlink:href="#37" y="73.814"/><use xlink:href="#39" y="78.156"/><use xlink:href="#40" y="80.327"/><use xlink:href="#41" y="82.498"/><use xlink:href="#42" y="84.669"/></svg><svg x="3000"><use xlink:href="#a"/><use xlink:href="#b" x="57.996" y="47.737"/><use xlink:href="#8"/><use xlink:href="#9" y="2.171"/><use xlink:href="#10" y="4.342"/><use xlink:href="#11" y="6.513"/><use xlink:href="#12" y="8.684"/><use xlink:href="#13" y="10.855"/><use xlink:href="#14" y="13.026"/><use xlink:href="#15" y="15.197"/><use xlink:href="#16" y="17.368"/><use xlink:href="#17" y="19.539"/><use xlink:href="#18" y="21.71"/><use xlink:href="#19" y="23.881"/><use xlink:href="#20" y="26.052"/><use xlink:href="#21" y="28.223"/><use xlink:href="#22" y="30.394"/><use xlink:href="#23" y="32.565"/><use xlink:href="#24" y="34.736"/><use xlink:href="#25" y="36.907"/><use xlink:href="#26" y="39.078"/><use xlink:href="#43" y="41.249"/><use xlink:href="#44" y="43.42"/><use xlink:href="#45" y="45.591"/><use xlink:href="#48" y="47.762"/><use xlink:href="#46" y="49.933"/><use xlink:href="#47" y="52.104"/><use xlink:href="#29" y="54.275"/><use xlink:href="#30" y="56.446"/><use xlink:href="#31" y="58.617"/><use xlink:href="#32" y="60.788"/><use xlink:href="#33" y="62.959"/><use xlink:href="#23" y="65.13"/><use xlink:href="#34" y="67.301"/><use xlink:href="#35" y="69.472"/><use xlink:href="#36" y="71.643"/><use xlink:href="#37" y="73.814"/><use xlink:href="#39" y="78.156"/><use xlink:href="#40" y="80.327"/><use xlink:href="#41" y="82.498"/><use xlink:href="#42" y="84.669"/></svg><svg x="3120"><use xlink:href="#a"/><use xlink:href="#b" x="83.996" y="43.395"/><use xlink:href="#8"/><use xlink:href="#9" y="2.171"/><use xlink:href="#10" y="4.342"/><use xlink:href="#11" y="6.513"/><use xlink:href="#12" y="8.684"/><use xlink:href="#13" y="10.855"/><use xlink:href="#14" y="13.026"/><use xlink:href="#15" y="15.197"/><use xlink:href="#16" y="17.368"/><use xlink:href="#17" y="19.539"/><use xlink:href="#18" y="21.71"/><use xlink:href="#19" y="23.881"/><use xlink:href="#20" y="26.052"/><use xlink:href="#21" y="28.223"/><use xlink:href="#22" y="30.394"/><use xlink:href="#23" y="32.565"/><use xlink:href="#24" y="34.736"/><use xlink:href="#25" y="36.907"/><use xlink:href="#26" y="39.078"/><use xlink:href="#43" y="41.249"/><use xlink:href="#49" y="43.42"/><text y="47.261" class="g">,</text><text x="2.004" y="47.261" class="g">and</text><text x="6.012" y="47.261" class="g">network</text><text x="14.028" y="47.261" class="g">activity</text><text x="23.046" y="47.261" class="g">are</text><text x="27.054" y="47.261" class="g">consistent</text><text x="38.076" y="47.261" class="g">with</text><text x="43.086" y="47.261" class="g">a</text><text x="45.09" y="47.261" class="g">normal</text><text x="52.104" y="47.261" class="g">user</text><text x="57.114" y="47.261" class="g">session</text><text x="65.13" y="47.261" class="g">durin</text><use xlink:href="#48" y="47.762"/><use xlink:href="#50" y="49.933"/><use xlink:href="#51" y="52.104"/><use xlink:href="#29" y="54.275"/><use xlink:href="#30" y="56.446"/><use xlink:href="#31" y="58.617"/><use xlink:href="#32" y="60.788"/><use xlink:href="#33" y="62.959"/><use xlink:href="#23" y="65.13"/><use xlink:href="#34" y="67.301"/><use xlink:href="#35" y="69.472"/><use xlink:href="#36" y="71.643"/><use xlink:href="#37" y="73.814"/><use xlink:href="#39" y="78.156"/><use xlink:href="#40" y="80.327"/><use xlink:href="#41" y="82.498"/><use xlink:href="#42" y="84.669"/></svg><svg x="3240"><use xlink:href="#a"/><use xlink:href="#b" x="35.996" y="45.566"/><use xlink:href="#8"/><use xlink:href="#9" y="2.171"/><use xlink:href="#10" y="4.342"/><use xlink:href="#11" y="6.513"/><use xlink:href="#12" y="8.684"/><use xlink:href="#13" y="10.855"/><use xlink:href="#14" y="13.026"/><use xlink:href="#15" y="15.197"/><use xlink:href="#16" y="17.368"/><use xlink:href="#17" y="19.539"/><use xlink:href="#18" y="21.71"/><use xlink:href="#19" y="23.881"/><use xlink:href="#20" y="26.052"/><use xlink:href="#21" y="28.223"/><use xlink:href="#22" y="30.394"/><use xlink:href="#23" y="32.565"/><use xlink:href="#24" y="34.736"/><use xlink:href="#25" y="36.907"/><use xlink:href="#26" y="39.078"/><use xlink:href="#43" y="41.249"/><use xlink:href="#49" y="43.42"/><use xlink:href="#52" y="45.591"/><use xlink:href="#48" y="47.762"/><use xlink:href="#50" y="49.933"/><use xlink:href="#51" y="52.104"/><use xlink:href="#29" y="54.275"/><use xlink:href="#30" y="56.446"/><use xlink:href="#31" y="58.617"/><use xlink:href="#32" y="60.788"/><use xlink:href="#33" y="62.959"/><use xlink:href="#23" y="65.13"/><use xlink:href="#34" y="67.301"/><use xlink:href="#35" y="69.472"/><use xlink:href="#36" y="71.643"/><use xlink:href="#37" y="73.814"/><use xlink:href="#39" y="78.156"/><use xlink:href="#40" y="80.327"/><use xlink:href="#41" y="82.498"/><use xlink:href="#42" y="84.669"/></svg><svg x="3360"><use xlink:href="#a"/><use xlink:href="#b" x="72.996" y="47.737"/><use xlink:href="#8"/><use xlink:href="#9" y="2.171"/><use xlink:href="#10" y="4.342"/><use xlink:href="#11" y="6.513"/><use xlink:href="#12" y="8.684"/><use xlink:href="#13" y="10.855"/><use xlink:href="#14" y="13.026"/><use xlink:href="#15" y="15.197"/><use xlink:href="#16" y="17.368"/><use xlink:href="#17" y="19.539"/><use xlink:href="#18" y="21.71"/><use xlink:href="#19" y="23.881"/><use xlink:href="#20" y="26.052"/><use xlink:href="#21" y="28.223"/><use xlink:href="#22" y="30.394"/><use xlink:href="#23" y="32.565"/><use xlink:href="#24" y="34.736"/><use xlink:href="#25" y="36.907"/><use xlink:href="#26" y="39.078"/><use xlink:href="#43" y="41.249"/><use xlink:href="#49" y="43.42"/><use xlink:href="#52" y="45.591"/><use xlink:href="#53" y="47.762"/><use xlink:href="#50" y="49.933"/><use xlink:href="#51" y="52.104"/><use xlink:href="#29" y="54.275"/><use xlink:href="#30" y="56.446"/><use xlink:href="#31" y="58.617"/><use xlink:href="#32" y="60.788"/><use xlink:href="#33" y="62.959"/><use xlink:href="#23" y="65.13"/><use xlink:href="#34" y="67.301"/><use xlink:href="#35" y="69.472"/><use xlink:href="#36" y="71.643"/><use xlink:href="#37" y="73.814"/><use xlink:href="#39" y="78.156"/><use xlink:href="#40" y="80.327"/><use xlink:href="#41" y="82.498"/><use xlink:href="#42" y="84.669"/></svg><svg x="3480"><use xlink:href="#a"/><use xlink:href="#b" x="-.004" y="49.908"/><use xlink:href="#8"/><use xlink:href="#9" y="2.171"/><use xlink:href="#10" y="4.342"/><use xlink:href="#11" y="6.513"/><use xlink:href="#12" y="8.684"/><use xlink:href="#13" y="10.855"/><use xlink:href="#14" y="13.026"/><use xlink:href="#15" y="15.197"/><use xlink:href="#16" y="17.368"/><use xlink:href="#17" y="19.539"/><use xlink:href="#18" y="21.71"/><use xlink:href="#19" y="23.881"/><use xlink:href="#20" y="26.052"/><use xlink:href="#21" y="28.223"/><use xlink:href="#22" y="30.394"/><use xlink:href="#23" y="32.565"/><use xlink:href="#24" y="34.736"/><use xlink:href="#25" y="36.907"/><use xlink:href="#26" y="39.078"/><use xlink:href="#43" y="41.249"/><use xlink:href="#49" y="43.42"/><use xlink:href="#52" y="45.591"/><use xlink:href="#53" y="47.762"/><use xlink:href="#50" y="49.933"/><use xlink:href="#51" y="52.104"/><use xlink:href="#29" y="54.275"/><use xlink:href="#30" y="56.446"/><use xlink:href="#31" y="58.617"/><use xlink:href="#32" y="60.788"/><use xlink:href="#33" y="62.959"/><use xlink:href="#23" y="65.13"/><use xlink:href="#34" y="67.301"/><use xlink:href="#35" y="69.472"/><use xlink:href="#36" y="71.643"/><use xlink:href="#37" y="73.814"/><use xlink:href="#39" y="78.156"/><use xlink:href="#40" y="80.327"/><use xlink:href="#41" y="82.498"/><use xlink:href="#42" y="84.669"/></svg></svg></g></g></svg></svg>